<?xml version="1.0" encoding="utf-8"?>
<!-- Generator: Adobe Illustrator 24.0.0, SVG Export Plug-In . SVG Version: 6.00 Build 0)  -->
<svg version="1.1" id="Layer_1" xmlns="http://www.w3.org/2000/svg" xmlns:xlink="http://www.w3.org/1999/xlink" x="0px" y="0px"
	 viewBox="0 0 30 30" style="enable-background:new 0 0 30 30;" xml:space="preserve">
<style type="text/css">
	.st0{fill:#CFD4E5;}
	.st1{fill:#D1EDE8;}
	.st2{fill:#F3DB94;}
	.st3{fill:#25B32B;}
</style>
<path class="st0" d="M8.2,8.7l-5.7,1.7c-0.4,0.1-0.6,0.5-0.5,0.8L6,23.6c0.1,0.4,0.5,0.6,0.9,0.4l8.4-2.6" fill="#000"/>
<g>
	<path d="M6.6,24.6c-0.2,0-0.4,0-0.6-0.1c-0.3-0.1-0.5-0.4-0.6-0.7L1.6,11.4c-0.1-0.3-0.1-0.6,0.1-0.9C1.8,10.3,2,10,2.3,10L8,8.3
		c0.3-0.1,0.5,0.1,0.6,0.3c0.1,0.3-0.1,0.5-0.3,0.6l-5.7,1.7c-0.1,0-0.1,0.1-0.1,0.1c0,0,0,0.1,0,0.1l3.9,12.3
		c0,0.1,0.1,0.1,0.1,0.1c0,0,0.1,0,0.2,0l8.4-2.6c0.3-0.1,0.5,0.1,0.6,0.3c0.1,0.3-0.1,0.5-0.3,0.6L7,24.6
		C6.9,24.6,6.7,24.6,6.6,24.6z" fill="#000"/>
</g>
<path class="st0" d="M21.8,8.2L21,5.5c-0.1-0.4-0.5-0.6-0.9-0.4l-5.8,1.7" fill="#000"/>
<g>
	<path d="M21.8,8.7c-0.2,0-0.4-0.1-0.5-0.3l-0.9-2.7c0-0.1-0.2-0.2-0.2-0.1l-5.8,1.7c-0.3,0.1-0.5-0.1-0.6-0.3
		c-0.1-0.3,0.1-0.5,0.3-0.6l5.8-1.7c0.6-0.2,1.3,0.2,1.5,0.8L22.3,8c0.1,0.3-0.1,0.5-0.3,0.6C22,8.6,21.9,8.7,21.8,8.7z" fill="#000"/>
</g>
<path class="st1" d="M27.5,9.2L9.4,5.9C9,5.8,8.7,6,8.6,6.4L6.2,19.1c-0.1,0.4,0.2,0.7,0.5,0.8l18.1,3.3c0.4,0.1,0.7-0.2,0.8-0.5
	L28.1,10C28.2,9.6,27.9,9.3,27.5,9.2z" fill="#000"/>
<path class="st2" d="M12.3,13.7c1,0.2,2-0.5,2.2-1.4c0.2-1-0.5-1.9-1.5-2.1c-1-0.2-2,0.5-2.2,1.4C10.6,12.5,11.3,13.5,12.3,13.7z" fill="#000"/>
<path d="M12.6,14.2c-0.1,0-0.3,0-0.4,0c-0.6-0.1-1.2-0.5-1.5-1c-0.4-0.5-0.5-1.1-0.4-1.7c0.2-1.3,1.5-2.1,2.7-1.8
	c0.6,0.1,1.2,0.5,1.5,1c0.3,0.5,0.5,1.1,0.4,1.7c-0.1,0.6-0.5,1.1-1,1.5C13.6,14.1,13.1,14.2,12.6,14.2z M12.6,10.6
	c-0.6,0-1.2,0.4-1.3,1.1c-0.1,0.3,0,0.7,0.2,1c0.2,0.3,0.5,0.5,0.9,0.6c0,0,0,0,0,0c0.4,0.1,0.7,0,1-0.2c0.3-0.2,0.5-0.5,0.5-0.8
	c0.1-0.3,0-0.7-0.2-1c-0.2-0.3-0.5-0.5-0.9-0.6C12.8,10.6,12.7,10.6,12.6,10.6z" fill="#000"/>
<path class="st3" d="M10.1,20.5l7.5-6.9l1.8,3.7l4-4.3l2.4,5.2l0.2,0.5l-1,4.5"/>
<path d="M28.4,9.2c-0.2-0.3-0.5-0.4-0.8-0.5c0,0,0,0,0,0L9.5,5.4C8.8,5.3,8.2,5.7,8.1,6.3L5.7,19c-0.1,0.3,0,0.6,0.2,0.9
	c0.2,0.3,0.5,0.4,0.8,0.5l18.1,3.3c0.1,0,0.1,0,0.2,0c0.6,0,1.1-0.4,1.2-1l2.4-12.7C28.6,9.8,28.6,9.5,28.4,9.2z M24.7,22.6l-3-0.4
	l-10.5-2l6.3-5.8l1.5,3.1c0.1,0.1,0.2,0.2,0.4,0.3c0.2,0,0.3,0,0.4-0.1l3.5-3.7l2.2,4.8L24.7,22.6z M26.2,17.4L24,12.7
	c-0.1-0.2-0.2-0.3-0.4-0.3c-0.2,0-0.3,0-0.4,0.1l-3.6,3.7l-1.5-3c-0.1-0.1-0.2-0.2-0.4-0.3c-0.2,0-0.3,0-0.4,0.1L9.9,20l-3.1-0.6
	c-0.1,0-0.1-0.1-0.1-0.1c0,0,0-0.1,0-0.1L9.1,6.5c0-0.1,0.1-0.2,0.2-0.2c0,0,0,0,0,0l18.1,3.3c0.1,0,0.1,0.1,0.1,0.1
	c0,0,0,0.1,0,0.1L26.2,17.4z" fill="#000"/>
</svg>
