<svg width="30" height="30" viewBox="0 0 30 30" fill="none" xmlns="http://www.w3.org/2000/svg">
<path fill-rule="evenodd" clip-rule="evenodd" d="M8.27341 11.2741C8.36007 11.1874 8.46298 11.1187 8.57624 11.0719C8.6895 11.025 8.81089 11.001 8.93345 11.0011C9.05601 11.0013 9.17734 11.0256 9.29048 11.0727C9.40363 11.1198 9.50637 11.1888 9.59282 11.2757L14.5178 16.2145L19.4548 11.2876C19.63 11.1129 19.8674 11.0149 20.1148 11.0152C20.3623 11.0155 20.5995 11.1141 20.7742 11.2892C20.949 11.4644 21.047 11.7018 21.0467 11.9493C21.0464 12.1967 20.9478 12.4339 20.7726 12.6087L15.1751 18.1926C15.0885 18.2792 14.9856 18.348 14.8723 18.3948C14.759 18.4416 14.6377 18.4657 14.5151 18.4655C14.3925 18.4654 14.2712 18.441 14.1581 18.3939C14.0449 18.3468 13.9422 18.2778 13.8557 18.191L8.27181 12.5935C8.18514 12.5068 8.11642 12.4039 8.06959 12.2907C8.02275 12.1774 7.99872 12.056 7.99887 11.9334C7.99902 11.8109 8.02334 11.6896 8.07045 11.5764C8.11756 11.4633 8.18653 11.3605 8.27341 11.2741Z" fill="black"/>
</svg>
