<svg width="30" height="30" viewBox="0 0 30 30" fill="none" xmlns="http://www.w3.org/2000/svg">
<path fill-rule="evenodd" clip-rule="evenodd" d="M11.2937 21.7063C11.2006 21.6135 11.1267 21.5032 11.0763 21.3818C11.0259 21.2603 11 21.1301 11 20.9987C11 20.8672 11.0259 20.737 11.0763 20.6156C11.1267 20.4941 11.2006 20.3838 11.2937 20.291L16.5853 15.0013L11.2937 9.7117C11.106 9.52401 11.0005 9.26945 11.0005 9.00402C11.0005 8.73859 11.106 8.48403 11.2937 8.29634C11.4813 8.10865 11.7359 8.0032 12.0013 8.0032C12.2668 8.0032 12.5213 8.10865 12.709 8.29634L18.7063 14.2937C18.7994 14.3865 18.8733 14.4968 18.9237 14.6182C18.9741 14.7397 19 14.8699 19 15.0013C19 15.1328 18.9741 15.263 18.9237 15.3844C18.8733 15.5059 18.7994 15.6162 18.7063 15.709L12.709 21.7063C12.6162 21.7994 12.5059 21.8733 12.3844 21.9237C12.263 21.9741 12.1328 22 12.0013 22C11.8699 22 11.7397 21.9741 11.6182 21.9237C11.4968 21.8733 11.3865 21.7994 11.2937 21.7063Z" fill="black"/>
</svg>
