<?xml version="1.0" encoding="utf-8"?>
<!-- Generator: Adobe Illustrator 24.0.0, SVG Export Plug-In . SVG Version: 6.00 Build 0)  -->
<svg version="1.1" id="Layer_1" xmlns="http://www.w3.org/2000/svg" xmlns:xlink="http://www.w3.org/1999/xlink" x="0px" y="0px"
	 viewBox="0 0 30 30" style="enable-background:new 0 0 30 30;" xml:space="preserve">
<style type="text/css">
	.st0{fill:#F01515;}
	.st1{fill:#F5F5F5;}
</style>
<path d="M24.1,20c0,0,0-0.1,0-0.1c0,0,0-0.1,0-0.1c0,0,0-0.1,0-0.1c0,0,0-0.1-0.1-0.1c0,0,0-0.1-0.1-0.1c0,0,0,0,0,0c0,0,0,0,0,0
	c-0.9-0.9-2.9-3.6-2.8-7.8C21.2,9,20.1,7.1,18,6c-2.1-1-4.5-1-6.6,0c-2.2,1.1-3.3,3-3.2,5.5c0.2,4.2-1.9,6.9-2.8,7.8c0,0,0,0,0,0
	c0,0,0,0,0,0c0,0,0,0.1-0.1,0.1c0,0-0.1,0.1-0.1,0.1c0,0,0,0.1,0,0.1c0,0,0,0.1,0,0.1c0,0,0,0.1,0,0.1c0,0,0,0.1,0,0.1
	c0,0,0.1,0.1,0.1,0.1c0,0,0,0.1,0.1,0.1c0,0,0,0,0,0c0,0,0,0,0,0c2.5,2.1,5.8,3.1,9.2,3.1c3.3,0,6.6-1,9.2-3.1c0,0,0,0,0,0
	c0,0,0,0,0,0c0,0,0-0.1,0.1-0.1c0,0,0.1-0.1,0.1-0.1C24.1,20.1,24.1,20.1,24.1,20z M7.1,19.7c1.1-1.4,2.8-4.2,2.6-8.3
	c-0.1-1.9,0.7-3.2,2.4-4.1c1.6-0.8,3.6-0.8,5.2,0c1.6,0.8,2.4,2.2,2.4,4.1c-0.2,4.1,1.5,6.9,2.6,8.3C18,22.7,11.4,22.7,7.1,19.7z"/>
<g>
	<path d="M14.7,26.4c-1.5,0-2.7-1-2.7-2.3c0-0.4,0.3-0.8,0.8-0.8s0.8,0.3,0.8,0.8c0,0.4,0.5,0.8,1.2,0.8s1.2-0.4,1.2-0.8
		c0-0.4,0.3-0.8,0.8-0.8s0.8,0.3,0.8,0.8C17.4,25.4,16.2,26.4,14.7,26.4z"/>
</g>
<path class="st0" d="M21,16c3.3,0,6-2.7,6-6c0-3.3-2.7-6-6-6s-6,2.7-6,6C15,13.3,17.7,16,21,16z"/>
<path class="st1" d="M21,17c-3.9,0-7-3.1-7-7s3.1-7,7-7s7,3.1,7,7S24.9,17,21,17z M21,5c-2.8,0-5,2.2-5,5s2.2,5,5,5s5-2.2,5-5
	S23.8,5,21,5z"/>
</svg>
