<?xml version="1.0" encoding="utf-8"?>
<!-- Generator: Adobe Illustrator 24.0.0, SVG Export Plug-In . SVG Version: 6.00 Build 0)  -->
<svg version="1.1" id="Layer_1" xmlns="http://www.w3.org/2000/svg" xmlns:xlink="http://www.w3.org/1999/xlink" x="0px" y="0px"
	 viewBox="0 0 30 30" style="enable-background:new 0 0 30 30;" xml:space="preserve">
<g>
	<path d="M8.2,25c-0.3,0-0.4-0.1-0.6-0.1l-0.1,0c-0.1-0.1-0.3-0.2-0.4-0.4C7.1,24.3,7,24.1,7,23.9V7.6c0-0.7,0.2-1.3,0.7-1.8
		C8.2,5.3,8.8,5,9.5,5l11,0c0.7,0,1.3,0.3,1.8,0.8C22.8,6.3,23,6.9,23,7.6v16.3c0,0.2-0.1,0.4-0.2,0.6c-0.1,0.2-0.3,0.3-0.4,0.4
		c-0.3,0.2-0.8,0.2-1.1,0l-6.5-3.6l-6.1,3.6l-0.4-0.7l0.4,0.7C8.6,24.9,8.4,25,8.2,25z M22,23.4L22,23.4
		C22.1,23.4,22.1,23.4,22,23.4z M14.8,19.4l6.6,3.6V7.6c0-0.3-0.1-0.5-0.3-0.7c-0.2-0.2-0.4-0.3-0.7-0.3l-10.9,0
		C9.3,6.6,9,6.7,8.9,6.9C8.7,7.1,8.6,7.3,8.6,7.6l0,15.5L14.8,19.4z"  fill="#61BAAC"/>
</g>
</svg>
