<?xml version="1.0" encoding="utf-8"?>
<!-- Generator: Adobe Illustrator 24.0.0, SVG Export Plug-In . SVG Version: 6.00 Build 0)  -->
<svg version="1.1" id="Layer_1" xmlns="http://www.w3.org/2000/svg" xmlns:xlink="http://www.w3.org/1999/xlink" x="0px" y="0px"
	 viewBox="0 0 32 32" style="enable-background:new 0 0 32 32;" xml:space="preserve">
<style type="text/css">
	.st0{fill:#D4CAB2;}
	.st1{fill:#E6DEC9;}
	.st2{fill:none;stroke:#231F20;stroke-linecap:round;stroke-linejoin:round;}
	.st3{fill:#B4A6D2;}
	.st4{fill:#231F20;}
	.st5{fill:#EEB4B4;}
</style>
<path class="st0" d="M2,22v-7l8,3.5l-0.5,9H8L3.5,25L2,22z"/>
<path class="st1" d="M10,19v8.6L31,21v-8.6C13.5,17.6,18.8,16.2,10,19z"/>
<path class="st2" d="M10,19c-2.1,0-4.9-0.9-6.2-2.2"/>
<path class="st2" d="M3.8,16.7C2.7,15.6,2,14.1,2,12.4V21c0,3.6,4.1,6.6,8,6.6"/>
<path class="st2" d="M2,11.9c0,0.2,0,0.3,0,0.4c0,1.7,0.7,3.2,1.8,4.4C5.1,18.1,7.9,19,10,19l21-6.6"/>
<path class="st3" d="M8.2,6c-3.4,0.4-6,2.8-6.2,6c0,0.2,0,0.3,0,0.4c0,1.7,0.7,3.2,1.8,4.4C5.1,18.1,7.9,19,10,19l21-6.6L12.1,6.8"
	/>
<path class="st4" d="M31.5,12.4c0,0,0-0.1,0-0.1c0,0,0-0.1,0-0.1c0,0-0.1-0.1-0.1-0.1c0,0,0,0,0-0.1c0,0-0.1,0-0.1,0c0,0,0,0-0.1,0
	L12.3,6.4c-0.3-0.1-0.5,0.1-0.6,0.3C11.6,7,11.7,7.2,12,7.3l17.2,5.1c-9.9,3-11.6,3.6-13.7,4.3c-1.2,0.4-2.5,0.9-5.5,1.8
	c-0.1,0-0.2,0-0.3,0c-0.1,0-0.2,0-0.4,0c-0.1,0-0.2,0-0.2,0c-0.2,0-0.4,0-0.6-0.1c0,0,0,0,0,0c-1.6-0.3-3.3-1-4.2-1.9
	c-1.1-1.1-1.7-2.5-1.7-4c0-0.1,0-0.3,0-0.4c0.2-2.9,2.6-5.1,5.7-5.5c0.3,0,0.5-0.3,0.4-0.6c0-0.3-0.3-0.5-0.6-0.4
	c-3.7,0.4-6.4,3-6.6,6.4c0,0.1,0,0.3,0,0.4c0,0,0,0,0,0.1V21c0,4.1,4.5,7.1,8.5,7.1c0.1,0,0.1,0,0.1,0l21-6.6
	c0.2-0.1,0.4-0.3,0.4-0.5L31.5,12.4C31.5,12.4,31.5,12.4,31.5,12.4z M2.5,21v-5.1c0.3,0.4,0.6,0.8,0.9,1.2c1.4,1.4,4,2.2,6.1,2.4
	v7.6C6.2,26.9,2.5,24.3,2.5,21z M10.5,26.9v-7.6l20-6.3v7.6L10.5,26.9z"/>
<g>
	<path class="st4" d="M10.1,23.7c-0.2,0-0.4-0.1-0.5-0.3c-0.1-0.3,0.1-0.5,0.3-0.6l20.9-6.6c0.3-0.1,0.5,0.1,0.6,0.3
		c0.1,0.3-0.1,0.5-0.3,0.6l-20.9,6.6C10.2,23.7,10.1,23.7,10.1,23.7z"/>
</g>
<path class="st5" d="M7.1,9.2c0,0-1.4,0.1-1.5,1.7c-0.2,2.5,4,3.2,6.5,1.7c1.1-0.6,1.6-1.4,1.1-2.7c-0.2-0.8-0.8-1.4-1.9-1.2"/>
<path class="st5" d="M8.4,9.9c0,0-3.2-0.8-0.6-3.4c1.1-1.2,1.4-1.9,1.5-2.3C9.3,4,9.4,3.9,9.6,4C10.8,4.8,14,7.4,11,8.9"/>
<path class="st4" d="M13.7,9.8c-0.2-0.8-0.7-1.3-1.3-1.5c0.2-0.3,0.3-0.6,0.3-0.9c0.1-1.5-1.7-3.1-2.9-3.8C9.7,3.5,9.4,3.5,9.2,3.6
	C8.9,3.7,8.8,3.9,8.7,4.1c0,0.3-0.3,0.9-1.4,2C6.4,7.1,6.1,8,6.3,8.8c0,0.1,0,0.1,0.1,0.1c-0.6,0.3-1.2,0.8-1.3,1.9
	c-0.1,1,0.4,1.8,1.2,2.3c0.7,0.5,1.7,0.7,2.7,0.7c1.1,0,2.3-0.3,3.2-0.8C13.7,12.3,14.1,11.2,13.7,9.8z M11.8,12.2
	c-1.5,0.9-3.7,0.9-4.9,0.2C6.3,12,6.1,11.6,6.1,11C6.2,10.1,6.7,9.9,7,9.8c0.6,0.5,1.2,0.6,1.3,0.7c0,0,0.1,0,0.1,0
	c0.2,0,0.4-0.2,0.5-0.4c0.1-0.3-0.1-0.5-0.4-0.6C8.2,9.4,7.4,9.1,7.3,8.5C7.1,8,7.6,7.3,8.1,6.9C8.9,6,9.4,5.3,9.6,4.7
	c1.1,0.8,2.2,1.9,2.1,2.7c0,0.4-0.4,0.7-1,1c-0.2,0.1-0.4,0.4-0.2,0.7c0.1,0.2,0.4,0.4,0.7,0.2c0.1,0,0.1-0.1,0.2-0.1
	c0.7-0.1,1.1,0.2,1.4,0.9C13,11.1,12.8,11.7,11.8,12.2z"/>
</svg>
