<?xml version="1.0" encoding="utf-8"?>
<!-- Generator: Adobe Illustrator 24.0.0, SVG Export Plug-In . SVG Version: 6.00 Build 0)  -->
<svg version="1.1" id="Layer_1" xmlns="http://www.w3.org/2000/svg" xmlns:xlink="http://www.w3.org/1999/xlink" x="0px" y="0px"
	 viewBox="0 0 30 30" style="enable-background:new 0 0 30 30;" xml:space="preserve">
<path d="M22.9,7.3h-1.4V6.8c0-1-0.8-1.8-1.8-1.8s-1.8,0.8-1.8,1.8v0.6h-5.9V6.8c0-1-0.8-1.8-1.8-1.8c-1,0-1.8,0.8-1.8,1.8v0.6H7.1
	C6,7.3,5,8.3,5,9.5v13.4C5,24,6,25,7.1,25h15.7c1.2,0,2.1-1,2.1-2.1V9.5C25,8.3,24,7.3,22.9,7.3z M19.1,6.8c0-0.3,0.3-0.6,0.6-0.6
	s0.6,0.3,0.6,0.6v2.3c0,0.3-0.3,0.6-0.6,0.6s-0.6-0.3-0.6-0.6V6.8z M9.7,6.8c0-0.3,0.3-0.6,0.6-0.6c0.3,0,0.6,0.3,0.6,0.6v2.3
	c0,0.3-0.3,0.6-0.6,0.6c-0.3,0-0.6-0.3-0.6-0.6V6.8z M23.8,22.9c0,0.5-0.4,1-1,1H7.1c-0.5,0-1-0.4-1-1v-9.6h17.7V22.9z M23.8,12.1
	H6.2V9.5c0-0.5,0.4-1,1-1h1.4v0.6c0,1,0.8,1.8,1.8,1.8c1,0,1.8-0.8,1.8-1.8V8.5h5.9v0.6c0,1,0.8,1.8,1.8,1.8s1.8-0.8,1.8-1.8V8.5
	h1.4c0.5,0,1,0.4,1,1V12.1z"/>
</svg>
