<?xml version="1.0" encoding="utf-8"?>
<!-- Generator: Adobe Illustrator 24.0.0, SVG Export Plug-In . SVG Version: 6.00 Build 0)  -->
<svg version="1.1" id="Layer_1" xmlns="http://www.w3.org/2000/svg" xmlns:xlink="http://www.w3.org/1999/xlink" x="0px" y="0px"
	 viewBox="0 0 32 32" style="enable-background:new 0 0 32 32;" xml:space="preserve">
<style type="text/css">
	.st0{fill:#E1C369;}
	.st1{fill:#231F20;}
	.st2{fill:#9DCC9F;}
</style>
<path class="st0" d="M20.2,12.6c0,1.7-1.7,17.1-3.8,17.1c-2.1,0-3.8-15.4-3.8-17.1s1.7-3.2,3.8-3.2C18.4,9.5,20.2,10.9,20.2,12.6z"
	/>
<g>
	<path class="st1" d="M17.4,12.8c0-0.3-0.2-0.5-0.5-0.5H15c-0.3,0-0.5,0.2-0.5,0.5s0.2,0.5,0.5,0.5h1.9C17.2,13.3,17.4,13,17.4,12.8
		z"/>
	<path class="st1" d="M20.2,17.6c0.3-2.8,0.5-4.9,0.5-5c0-2-1.9-3.6-4.3-3.6C14,9,12,10.6,12,12.6c0,0.2,1.3,17.6,4.3,17.6
		c1.9,0,3.1-7.2,3.8-12.4C20.2,17.8,20.2,17.7,20.2,17.6C20.2,17.7,20.2,17.6,20.2,17.6z M16.4,29.2c-0.6-0.2-1.4-2.9-2-6.1h1.2
		c0.3,0,0.5-0.2,0.5-0.5s-0.2-0.5-0.5-0.5h-1.4C13.5,18.2,13,14,13,12.6c0-1.5,1.5-2.6,3.3-2.6s3.3,1.2,3.3,2.6
		c0,0.8-0.2,2.5-0.4,4.5h-2.9c-0.3,0-0.5,0.2-0.5,0.5s0.2,0.5,0.5,0.5h2.8C18.4,23,17.3,28.9,16.4,29.2z"/>
</g>
<path class="st2" d="M16.3,9.5V6c0,0,3.4-6.9,3.7-2.1c0.1,2.5-2.6-0.4-3.7,2.1"/>
<path class="st2" d="M16.3,8.4c0,0-4.9-6.7-5.3-2.1C10.8,8.8,14.9,6,16.3,8.4z"/>
<path class="st2" d="M16.3,6.2c0,0,0.1-6.4-2.5-3.3C12.5,4.4,16.6,4,16.3,6.2z"/>
<path class="st1" d="M19.5,1.8c-0.9-0.2-1.9,1.1-2.7,2.5c-0.1-1.1-0.5-2.4-1.3-2.7c-0.6-0.2-1.3,0.1-2,0.9c-0.3,0.4-0.5,0.7-0.4,1.1
	c0.1,0.6,0.7,0.8,1.3,1.1c0.8,0.4,1.3,0.6,1.4,1.1c0,0.1,0,0.2,0,0.3c0,0,0,0,0,0.1V7c-1.1-1.3-2.9-3.1-4.1-2.7
	c-0.7,0.2-1.1,0.9-1.2,2c0,0.5,0.1,0.9,0.3,1.2C11.3,8,12.2,7.9,13,7.9c1.2-0.1,2.1-0.1,2.7,0.5c0.1,0.1,0.1,0.2,0.2,0.2v0.9
	c0,0.3,0.2,0.5,0.5,0.5s0.5-0.2,0.5-0.5V6.2c0-0.1,0.1-0.2,0.1-0.3c0.3-0.5,0.8-0.5,1.6-0.4c0.6,0.1,1.1,0.1,1.5-0.3
	c0.3-0.3,0.4-0.7,0.4-1.3C20.5,3,20.3,1.9,19.5,1.8z M14.8,3.8c-0.3-0.1-0.7-0.3-0.8-0.4c0,0,0-0.1,0.2-0.2c0.4-0.5,0.7-0.6,0.9-0.6
	c0,0,0,0,0,0c0.3,0.1,0.5,0.8,0.6,1.7C15.4,4,15.1,3.9,14.8,3.8z M12.9,6.9c-0.5,0-1.2,0.1-1.4-0.1c-0.1-0.1-0.1-0.2-0.1-0.4
	c0.1-0.7,0.2-1.1,0.5-1.2c0,0,0.1,0,0.1,0c0.5,0,1.4,0.7,2.3,1.6C13.9,6.8,13.4,6.8,12.9,6.9z M19.4,4.5c-0.1,0.1-0.5,0-0.7,0
	c-0.2,0-0.5-0.1-0.7-0.1c-0.1,0-0.1,0-0.2,0c0.6-1,1.2-1.7,1.4-1.7c0,0,0.2,0.2,0.3,1.2C19.5,4.4,19.4,4.5,19.4,4.5z"/>
</svg>
