<?xml version="1.0" encoding="utf-8"?>
<!-- Generator: Adobe Illustrator 24.0.0, SVG Export Plug-In . SVG Version: 6.00 Build 0)  -->
<svg version="1.1" id="Layer_1" xmlns="http://www.w3.org/2000/svg" xmlns:xlink="http://www.w3.org/1999/xlink" x="0px" y="0px"
	 viewBox="0 0 32 32" style="enable-background:new 0 0 32 32;" xml:space="preserve">
<style type="text/css">
	.st0{fill:#D0C5A5;}
	.st1{fill:#231F20;}
	.st2{fill:#F7EAC4;}
</style>
<path class="st0" d="M1.4,16.5v-4h28.9v14.3c0,0.4-0.3,0.7-0.7,0.7H15.2c0.3-0.5,0.4-1,0.2-1.6c-0.2-0.8-0.9-1.5-1.7-1.6
	c-1.4-0.3-2.6,0.8-2.6,2.2c0,0.4,0.1,0.8,0.3,1.1h-10v-6.1c1.1-0.3,1.9-1.3,1.9-2.5C3.3,17.7,2.5,16.7,1.4,16.5z"/>
<path class="st1" d="M29.6,28H15.2c-0.2,0-0.3-0.1-0.4-0.3c-0.1-0.2-0.1-0.3,0-0.5c0.2-0.4,0.3-0.8,0.2-1.3
	c-0.2-0.6-0.7-1.1-1.3-1.3c-0.5-0.1-1,0-1.4,0.4c-0.4,0.3-0.6,0.8-0.6,1.3c0,0.3,0.1,0.6,0.2,0.8c0.1,0.2,0.1,0.3,0,0.5
	S11.6,28,11.4,28h-10c-0.3,0-0.5-0.2-0.5-0.5v-6.1c0-0.2,0.2-0.4,0.4-0.5c0.9-0.2,1.6-1,1.6-2c0-0.9-0.7-1.7-1.6-2
	c-0.2-0.1-0.4-0.3-0.4-0.5v-4c0-0.3,0.2-0.5,0.5-0.5h28.9c0.3,0,0.5,0.2,0.5,0.5v14.3C30.8,27.4,30.2,28,29.6,28z M16,27h13.6
	c0.1,0,0.2-0.1,0.2-0.2V13H1.9v3.1c1.1,0.5,1.9,1.6,1.9,2.8c0,1.3-0.8,2.4-1.9,2.8V27h8.8c0-0.2-0.1-0.4-0.1-0.6
	c0-0.8,0.4-1.6,1-2.1c0.6-0.5,1.5-0.7,2.3-0.6c1,0.2,1.9,1,2.1,2C16.1,26.2,16.1,26.6,16,27z"/>
<path class="st2" d="M1.4,12.5h28.9c0,0,0.2-6.5-12-7.5c-0.5,0-1,0.1-1.5,0.3L1.4,12.5z"/>
<path class="st1" d="M30.3,13H1.4c-0.2,0-0.4-0.2-0.5-0.4s0.1-0.5,0.3-0.6l15.4-7.2c0.6-0.3,1.2-0.4,1.7-0.3c12.6,1,12.5,7.7,12.5,8
	C30.8,12.8,30.6,13,30.3,13z M3.6,12h26.1c-0.2-1.5-1.8-5.7-11.5-6.5c-0.4,0-0.8,0-1.2,0.2L3.6,12z"/>
<path class="st2" d="M18.7,22.5c0,1.5,1.2,2.7,2.7,2.7c1.5,0,2.7-1.2,2.7-2.7c0-1.5-1.2-2.7-2.7-2.7C19.9,19.9,18.7,21,18.7,22.5z"
	/>
<path class="st1" d="M21.3,25.7c-1.8,0-3.2-1.4-3.2-3.2s1.4-3.2,3.2-3.2c1.8,0,3.2,1.4,3.2,3.2S23.1,25.7,21.3,25.7z M21.3,20.4
	c-1.2,0-2.2,1-2.2,2.2s1,2.2,2.2,2.2s2.2-1,2.2-2.2S22.5,20.4,21.3,20.4z"/>
<path class="st2" d="M23.6,16.5c0,0.9,0.8,1.7,1.7,1.7c1,0,1.7-0.8,1.7-1.7c0-0.9-0.8-1.7-1.7-1.7S23.6,15.5,23.6,16.5z"/>
<path class="st1" d="M25.3,18.7c-1.2,0-2.2-1-2.2-2.2s1-2.2,2.2-2.2s2.2,1,2.2,2.2S26.6,18.7,25.3,18.7z M25.3,15.3
	c-0.7,0-1.2,0.5-1.2,1.2c0,0.7,0.5,1.2,1.2,1.2s1.2-0.5,1.2-1.2C26.6,15.8,26,15.3,25.3,15.3z"/>
<g>
	<path class="st2" d="M10.2,19.5c0,1.1,0.9,2,2,2s2-0.9,2-2s-0.9-2-2-2S10.2,18.4,10.2,19.5z"/>
	<path class="st1" d="M12.2,21.9c-1.4,0-2.5-1.1-2.5-2.4s1.1-2.5,2.5-2.5s2.5,1.1,2.5,2.5S13.5,21.9,12.2,21.9z M12.2,18
		c-0.8,0-1.5,0.7-1.5,1.5c0,0.8,0.7,1.4,1.5,1.4s1.5-0.7,1.5-1.4C13.6,18.7,13,18,12.2,18z"/>
</g>
<g>
	<path class="st2" d="M16.3,16.5c0,0.6,0.5,1,1,1s1-0.4,1-1c0-0.5-0.5-1-1-1C16.8,15.5,16.3,16,16.3,16.5z"/>
	<path class="st1" d="M17.3,18c-0.8,0-1.5-0.7-1.5-1.5c0-0.4,0.2-0.8,0.4-1.1c0.3-0.3,0.6-0.4,1.1-0.4c0.8,0,1.5,0.7,1.5,1.5
		C18.8,17.3,18.2,18,17.3,18z M17.3,16c-0.1,0-0.3,0-0.3,0.1c-0.1,0.1-0.1,0.2-0.1,0.4c0,0.3,0.2,0.5,0.5,0.5s0.5-0.2,0.5-0.5
		C17.8,16.2,17.6,16,17.3,16C17.3,16,17.3,16,17.3,16z"/>
</g>
<g>
	<path class="st2" d="M6.3,24.1c0.8,0,1.5-0.7,1.5-1.5c0-0.8-0.7-1.5-1.5-1.5c-0.8,0-1.5,0.7-1.5,1.5C4.9,23.5,5.5,24.1,6.3,24.1z"
		/>
	<path class="st1" d="M6.3,24.6c-1.1,0-2-0.9-2-2s0.9-2,2-2c1.1,0,2,0.9,2,2S7.4,24.6,6.3,24.6z M6.3,21.7c-0.5,0-1,0.4-1,1
		s0.4,1,1,1c0.5,0,1-0.4,1-1S6.9,21.7,6.3,21.7z"/>
</g>
</svg>
