<?xml version="1.0" encoding="utf-8"?>
<!-- Generator: Adobe Illustrator 24.0.0, SVG Export Plug-In . SVG Version: 6.00 Build 0)  -->
<svg version="1.1" id="Layer_1" xmlns="http://www.w3.org/2000/svg" xmlns:xlink="http://www.w3.org/1999/xlink" x="0px" y="0px"
	 viewBox="0 0 32 32" style="enable-background:new 0 0 32 32;" xml:space="preserve">
<style type="text/css">
	.st0{fill:#A6965E;}
	.st1{fill:#C4C4C4;}
</style>
<path class="st0" d="M27.4,18.2l0,0.2L23,14.5l-0.5,0l0.5-0.3c-1.9-0.6-4.1-0.8-6.5-0.4c-0.4,0.1-0.8,0.2-1.2,0.3l-0.8,0l-3.1,2
	c-1.8,1.1-3.7,2.3-6,3.3c-1.2,0.5-1.9,1.2-2.1,2L3,21.5l0.1,0.2c-0.4,2,1.4,4.3,1.4,4.3l0.8-0.5h20.6L25.8,26
	c0.2-0.2,0.3-0.4,0.5-0.5h0.2l0.3-0.6C29.2,22.2,29.6,20.4,27.4,18.2z"/>
<path class="st1" d="M5,30l-1-2.5h24.5l-1,2.5H5z"/>
<g>
	<path d="M27.4,30.5H5.1c-0.2,0-0.4-0.1-0.5-0.3l-1-2.2c-0.1-0.3,0-0.5,0.2-0.7c0.3-0.1,0.5,0,0.7,0.2l0.9,1.9H27l0.9-1.9
		c0.1-0.3,0.4-0.4,0.7-0.3c0.3,0.1,0.4,0.4,0.3,0.7l-1,2.2C27.7,30.4,27.6,30.5,27.4,30.5z"/>
</g>
<g>
	<path d="M15.8,11.5C15.7,11.5,15.7,11.5,15.8,11.5c-0.1,0-1.3-0.1-1.7-1.1c-0.4-1,0-2.3,1.3-4c1.6-2,1.6-3,1.4-3.4
		c-0.1-0.4-0.5-0.5-0.5-0.5c-0.3-0.1-0.4-0.3-0.3-0.6c0.1-0.3,0.3-0.4,0.6-0.4c0.3,0.1,0.9,0.4,1.2,1.1c0.4,1-0.2,2.5-1.6,4.4
		c-1.4,1.8-1.4,2.7-1.2,3c0.2,0.5,0.9,0.5,0.9,0.5c0.3,0,0.5,0.3,0.5,0.5C16.2,11.3,16,11.5,15.8,11.5z"/>
</g>
<g>
	<path d="M20.5,10.2C20.5,10.2,20.5,10.2,20.5,10.2c-0.1,0-0.9-0.1-1.2-0.8c-0.3-0.6,0-1.4,0.8-2.5c0.9-1.1,0.8-1.6,0.8-1.7
		c0-0.1-0.1-0.1-0.1-0.1c-0.3-0.1-0.4-0.4-0.3-0.6C20.5,4.1,20.8,4,21,4c0.1,0,0.6,0.2,0.8,0.8c0.2,0.7-0.1,1.6-0.9,2.7
		c-0.8,1-0.7,1.4-0.7,1.5c0.1,0.1,0.3,0.2,0.3,0.2c0.3,0,0.5,0.3,0.4,0.5C21,10,20.8,10.2,20.5,10.2z"/>
</g>
<g>
	<path d="M9.4,12.7C9.4,12.7,9.4,12.7,9.4,12.7c-0.1,0-0.9-0.1-1.2-0.8c-0.3-0.6,0-1.4,0.8-2.5c0.9-1.1,0.8-1.6,0.8-1.7
		c0-0.1-0.1-0.1-0.1-0.1C9.4,7.5,9.2,7.2,9.3,7s0.3-0.4,0.6-0.3c0.1,0,0.6,0.2,0.8,0.8c0.2,0.7-0.1,1.6-0.9,2.7
		c-0.8,1-0.7,1.4-0.7,1.5c0.1,0.1,0.3,0.2,0.3,0.2c0.3,0,0.5,0.3,0.4,0.5C9.9,12.5,9.7,12.7,9.4,12.7z"/>
</g>
<g>
	<path d="M13.9,23.7C13.9,23.7,13.9,23.7,13.9,23.7c-0.3,0-0.5-0.3-0.5-0.5c0.2-2.2,1-3.9,2.5-4.9c2.3-1.6,5.3-1.2,6.2-1l3.5-3.5
		c-0.2-0.3-0.3-0.6-0.4-0.9c-0.1-0.5,0.1-1.1,0.5-1.5c0.6-0.6,1.5-0.7,2.2-0.3c0.5,0.3,0.8,0.8,0.9,1.4c0.6,0,1.1,0.3,1.4,0.9
		c0.5,0.7,0.4,1.6-0.3,2.2c-0.4,0.4-0.9,0.6-1.4,0.5c-0.3,0-0.7-0.1-0.9-0.3l-3.3,3.3c0.4,0.4,0.7,0.9,0.8,1.4
		c0.3,1.5-0.7,2.9-0.7,3c-0.2,0.2-0.5,0.3-0.7,0.1c-0.2-0.2-0.3-0.5-0.1-0.7c0,0,0.8-1.2,0.6-2.2c-0.1-0.5-0.4-0.8-0.8-1.1
		c-0.1-0.1-0.2-0.2-0.2-0.4s0-0.3,0.1-0.4l4.1-4.1c0.1-0.1,0.2-0.2,0.4-0.1c0.1,0,0.3,0.1,0.4,0.2c0.1,0.2,0.4,0.3,0.6,0.3
		c0.2,0,0.5-0.1,0.7-0.2c0.3-0.3,0.3-0.7,0.1-1c-0.2-0.3-0.5-0.5-1-0.3c-0.2,0.1-0.4,0-0.5-0.1c-0.1-0.1-0.2-0.3-0.1-0.5
		c0.2-0.5-0.1-0.8-0.3-1c-0.3-0.2-0.7-0.2-1,0.1c-0.2,0.2-0.3,0.4-0.2,0.7s0.2,0.5,0.4,0.6c0.1,0.1,0.2,0.2,0.2,0.4
		c0,0.1,0,0.3-0.1,0.4l-4.1,4.1c-0.1,0.1-0.3,0.2-0.5,0.1c0,0-3.4-0.8-5.7,0.8c-1.2,0.9-1.9,2.3-2.1,4.2
		C14.4,23.5,14.1,23.7,13.9,23.7z"/>
</g>
<path d="M30,25.5h-3c2.6-3,3.3-5.1,0.8-7.6c-0.2-0.2-0.5-0.2-0.7,0c-0.2,0.2-0.2,0.5,0,0.7c2,2.1,1.7,3.6-1.5,6.9H4.8
	c-0.4-0.5-1.6-2.3-1.2-3.8c0.2-0.8,0.9-1.5,2-1.9c2.1-0.9,3.8-1.9,5.3-2.9c2-1.3,3.8-2.3,5.7-2.7c2.2-0.3,4.4-0.2,6.3,0.4
	c0.3,0.1,0.5-0.1,0.6-0.3c0.1-0.3-0.1-0.5-0.3-0.6c-2-0.7-4.3-0.8-6.7-0.4c-2.2,0.3-4,1.5-6.1,2.8c-1.6,1-3.2,2-5.2,2.8
	c-1.4,0.6-2.3,1.5-2.5,2.6c-0.4,1.5,0.4,3.1,0.9,4H2.5C2.2,25.5,2,25.8,2,26s0.2,0.5,0.5,0.5H30c0.3,0,0.5-0.2,0.5-0.5
	S30.3,25.5,30,25.5z"/>
</svg>
