<?xml version="1.0" encoding="utf-8"?>
<!-- Generator: Adobe Illustrator 24.0.0, SVG Export Plug-In . SVG Version: 6.00 Build 0)  -->
<svg version="1.1" id="Layer_1" xmlns="http://www.w3.org/2000/svg" xmlns:xlink="http://www.w3.org/1999/xlink" x="0px" y="0px"
	 viewBox="0 0 30 30" style="enable-background:new 0 0 30 30;" xml:space="preserve">
<g>
	<path d="M10.5,25c-0.1,0-0.2,0-0.3-0.1c-0.3-0.1-0.5-0.4-0.5-0.7v-4.3c-2.7-1-5.4-4-5.4-7.8c0-4.2,3.5-7.9,7.5-7.9h6.3
		c3.9,0,7.4,3.7,7.4,8s-3.5,8-7.4,8h-1.7L11,24.8C10.9,24.9,10.7,25,10.5,25z M11.3,19.4v3l4.3-3.7c0.1-0.1,0.3-0.2,0.5-0.2h2
		c3,0,5.8-3,5.8-6.4c0-3.4-2.7-6.4-5.8-6.4h-6.3c-3.1,0-5.9,3-5.9,6.3c0,3.5,2.8,6,4.8,6.4C11.1,18.6,11.3,19,11.3,19.4
		C11.3,19.4,11.3,19.4,11.3,19.4z"/>
</g>
</svg>
