<?xml version="1.0" encoding="utf-8"?>
<!-- Generator: Adobe Illustrator 24.0.0, SVG Export Plug-In . SVG Version: 6.00 Build 0)  -->
<svg version="1.1" id="Layer_1" xmlns="http://www.w3.org/2000/svg" xmlns:xlink="http://www.w3.org/1999/xlink" x="0px" y="0px"
	 viewBox="0 0 26 26" style="enable-background:new 0 0 26 26;" xml:space="preserve">
<style type="text/css">
	.st0{fill:#61BAAC;}
	.st1{fill:#FFFFFF;}
</style>
<path class="st0" d="M7,0h12c3.9,0,7,3.1,7,7v12c0,3.9-3.1,7-7,7H7c-3.9,0-7-3.1-7-7V7C0,3.1,3.1,0,7,0z"/>
<g>
	<path class="st1" d="M15.3,19H5.4c-0.5,0-0.9-0.4-0.9-0.9v-1.4c0-0.4,0.2-0.7,0.6-0.8c2.7-1.1,3.3-1.6,3.5-1.8v-0.3
		c-0.3-0.4-0.6-0.9-0.7-1.5c-0.5-0.5-0.6-1.2-0.2-1.8V9.3c0-1.7,1.1-2.8,2.8-2.8c1.7,0,2.8,1,2.8,2.8v1.1c0.2,0.3,0.2,0.6,0.2,1
		c0,0.3-0.2,0.6-0.4,0.8c-0.2,0.6-0.4,1.1-0.7,1.5v0.3c0.1,0.1,0.7,0.6,3.5,1.8c0,0,0,0,0,0c0.3,0.1,0.5,0.5,0.6,0.8V18
		C16.2,18.5,15.8,19,15.3,19z M5.5,18L5.5,18C5.5,18,5.5,18,5.5,18z M5.5,18h9.7v-1.3c-3.3-1.4-3.9-2-4-2.4c0,0,0-0.1,0-0.1v-0.6
		c0-0.1,0-0.2,0.1-0.3c0.3-0.3,0.5-0.8,0.7-1.4c0-0.1,0.1-0.2,0.2-0.3c0.1-0.1,0.1-0.2,0.2-0.3c0-0.1,0-0.3-0.1-0.4
		c-0.1-0.1-0.1-0.2-0.1-0.3V9.3c0-1.2-0.6-1.8-1.8-1.8c-1.2,0-1.8,0.6-1.8,1.8v1.3c0,0.1,0,0.2-0.1,0.3c-0.2,0.2-0.1,0.5,0.1,0.7
		c0.1,0.1,0.2,0.2,0.2,0.3c0.1,0.6,0.4,1,0.7,1.4c0.1,0.1,0.1,0.2,0.1,0.3v0.6c0,0,0,0.1,0,0.1c-0.2,0.5-0.9,1.2-4.1,2.5L5.5,18z"/>
</g>
<g>
	<path class="st1" d="M20.1,19h-2.8c-0.3,0-0.5-0.2-0.5-0.5s0.2-0.5,0.5-0.5H20v-1.1c-0.7-0.2-1.4-0.4-2-0.5c-1-0.2-1.6-0.3-1.8-0.9
		c0,0,0-0.1,0-0.1v-0.7c0-0.3,0.2-0.5,0.5-0.5c0.7,0,1.2-0.1,1.5-0.2c-0.4-0.8-0.6-2.2-0.6-2.9c0-1.1-0.7-1.9-1.3-2.2
		c-0.7-0.3-1.4-0.2-2,0.2C14,9.2,13.7,9.2,13.5,9c-0.2-0.2-0.1-0.5,0.1-0.7c0.9-0.7,2-0.9,3.1-0.4c1.2,0.5,1.9,1.7,1.9,3
		c0.1,1.2,0.4,2.5,0.6,2.7c0.1,0.1,0.2,0.2,0.2,0.4c0,0.2-0.1,0.3-0.2,0.4c-0.1,0.1-0.7,0.5-2.1,0.6v0.1c0.2,0.1,0.7,0.2,1,0.2
		c0.7,0.1,1.5,0.3,2.2,0.6c0.3,0.1,0.5,0.4,0.5,0.8v1.3C21,18.6,20.6,19,20.1,19z"/>
</g>
</svg>
