<?xml version="1.0" encoding="utf-8"?>
<!-- Generator: Adobe Illustrator 24.0.0, SVG Export Plug-In . SVG Version: 6.00 Build 0)  -->
<svg version="1.1" id="Layer_1" xmlns="http://www.w3.org/2000/svg" xmlns:xlink="http://www.w3.org/1999/xlink" x="0px" y="0px"
	 viewBox="0 0 30 30" style="enable-background:new 0 0 30 30;" xml:space="preserve">
<style type="text/css">
	.st0{fill:#A9A9A9;}
</style>
<path class="st0" d="M8.7,24.8l6.1-3.6l6.5,3.6c0.4,0.2,0.8,0.2,1.1,0c0.2-0.1,0.3-0.2,0.4-0.4c0.1-0.2,0.1-0.3,0.2-0.6V7.6
	c0-0.7-0.2-1.3-0.7-1.8C21.8,5.3,21.2,5,20.5,5l-11,0C8.8,5,8.2,5.3,7.7,5.8C7.2,6.3,7,6.9,7,7.6v16.3c0,0.2,0.1,0.4,0.2,0.6
	c0.1,0.1,0.2,0.3,0.4,0.4l0.1,0C7.7,24.9,7.9,25,8.2,25C8.4,25,8.6,24.9,8.7,24.8 M21.4,23.1l-6.6-3.6L8.6,23l0-15.5
	c0-0.2,0.1-0.5,0.3-0.6C9,6.7,9.3,6.6,9.5,6.6l10.9,0c0.3,0,0.5,0.1,0.7,0.3c0.2,0.2,0.3,0.4,0.3,0.7V23.1z"/>
</svg>
