<?xml version="1.0" encoding="utf-8"?>
<!-- Generator: Adobe Illustrator 24.0.0, SVG Export Plug-In . SVG Version: 6.00 Build 0)  -->
<svg version="1.1" id="Layer_1" xmlns="http://www.w3.org/2000/svg" xmlns:xlink="http://www.w3.org/1999/xlink" x="0px" y="0px"
	 viewBox="0 0 18 24" style="enable-background:new 0 0 18 24;" xml:space="preserve">
<style type="text/css">
	.st0{clip-path:url(#SVGID_2_);fill:#EAEAEA;}
	.st1{clip-path:url(#SVGID_2_);fill:#231F20;}
	.st2{clip-path:url(#SVGID_2_);}
	.st3{fill:#9E9E9E;}
	.st4{fill:#231F20;}
</style>
<g>
	<defs>
		<rect id="SVGID_1_" y="0" width="18" height="24"/>
	</defs>
	<clipPath id="SVGID_2_">
		<use xlink:href="#SVGID_1_"  style="overflow:visible;"/>
	</clipPath>
	<path class="st0" d="M17.6,22.8c0,0.4-0.4,0.8-0.8,0.8H1.2c-0.5,0-0.8-0.4-0.8-0.8V1.2c0-0.4,0.4-0.8,0.8-0.8h12.3
		c0.2,0,0.3,0.1,0.5,0.2l3.4,3.3c0.2,0.2,0.2,0.3,0.2,0.5L17.6,22.8L17.6,22.8z"/>
	<path class="st1" d="M16.8,24.1H1.2c-0.7,0-1.3-0.6-1.3-1.3V1.2c0-0.7,0.6-1.3,1.3-1.3h12.3c0.4,0,0.6,0.2,0.8,0.4l3.4,3.3
		c0.2,0.2,0.4,0.4,0.4,0.9v18.3c0,0,0,0.1,0,0.1C18.1,23.5,17.5,24.1,16.8,24.1z M13.5,0.9l-12.3,0C1,0.9,0.9,1,0.9,1.2v21.6
		c0,0.2,0.1,0.3,0.3,0.3h15.6c0.2,0,0.3-0.1,0.3-0.2c0,0,0,0,0-0.1V4.4c0,0,0-0.1-0.1-0.1L13.6,1C13.6,1,13.5,0.9,13.5,0.9z"/>
	<g class="st2">
		<path class="st3" d="M13.5,0.8v3.6h3.6"/>
	</g>
	<g class="st2">
		<path class="st4" d="M17.6,4.9h-4.1c-0.3,0-0.5-0.2-0.5-0.5v-4c0-0.3,0.2-0.5,0.5-0.5S14,0.1,14,0.4v3.5h3.6
			c0.3,0,0.5,0.2,0.5,0.5S17.9,4.9,17.6,4.9z"/>
	</g>
	<g class="st2">
		<path class="st4" d="M14.1,12.1H3.9c-0.3,0-0.5-0.2-0.5-0.5s0.2-0.5,0.5-0.5h10.3c0.3,0,0.5,0.2,0.5,0.5S14.4,12.1,14.1,12.1z"/>
	</g>
	<g class="st2">
		<path class="st4" d="M14.1,15.3H3.9c-0.3,0-0.5-0.2-0.5-0.5s0.2-0.5,0.5-0.5h10.3c0.3,0,0.5,0.2,0.5,0.5S14.4,15.3,14.1,15.3z"/>
	</g>
	<g class="st2">
		<path class="st4" d="M14.1,18.5H3.9c-0.3,0-0.5-0.2-0.5-0.5s0.2-0.5,0.5-0.5h10.3c0.3,0,0.5,0.2,0.5,0.5S14.4,18.5,14.1,18.5z"/>
	</g>
	<g class="st2">
		<path class="st4" d="M9.6,8.9H3.9c-0.3,0-0.5-0.2-0.5-0.5s0.2-0.5,0.5-0.5h5.7c0.3,0,0.5,0.2,0.5,0.5S9.8,8.9,9.6,8.9z"/>
	</g>
</g>
</svg>
