<?xml version="1.0" encoding="utf-8"?>
<!-- Generator: Adobe Illustrator 24.0.0, SVG Export Plug-In . SVG Version: 6.00 Build 0)  -->
<svg version="1.1" id="Layer_1" xmlns="http://www.w3.org/2000/svg" xmlns:xlink="http://www.w3.org/1999/xlink" x="0px" y="0px"
	 viewBox="0 0 32 32" style="enable-background:new 0 0 32 32;" xml:space="preserve">
<style type="text/css">
	.st0{fill:#F5F5F5;}
	.st1{fill:#FFFFFF;}
</style>
<path d="M16,1L16,1c8.3,0,15,6.7,15,15l0,0c0,8.3-6.7,15-15,15l0,0C7.7,31,1,24.3,1,16l0,0C1,7.7,7.7,1,16,1z"/>
<path class="st0" d="M16,32C7.2,32,0,24.8,0,16S7.2,0,16,0s16,7.2,16,16S24.8,32,16,32z M16,2C8.3,2,2,8.3,2,16s6.3,14,14,14
	s14-6.3,14-14S23.7,2,16,2z"/>
<path class="st1" d="M23.5,12.5l-2.8-2.8c-0.4-0.4-1-0.4-1.4,0l-8.4,8.4c-0.1,0.1-0.2,0.3-0.3,0.5l-0.7,3.5
	c-0.1,0.7,0.5,1.3,1.2,1.2l3.5-0.7c0.2,0,0.4-0.1,0.5-0.3l8.4-8.4C23.9,13.6,23.9,12.9,23.5,12.5z M13.9,20.8l-1.8,0.4l0.4-1.8
	l4.9-5l1.4,1.4L13.9,20.8z M20.2,14.4L18.8,13l1.1-1.1l1.4,1.4L20.2,14.4z"/>
</svg>
