<?xml version="1.0" encoding="utf-8"?>
<!-- Generator: Adobe Illustrator 24.0.0, SVG Export Plug-In . SVG Version: 6.00 Build 0)  -->
<svg version="1.1" id="Layer_1" xmlns="http://www.w3.org/2000/svg" xmlns:xlink="http://www.w3.org/1999/xlink" x="0px" y="0px"
	 viewBox="0 0 32 32" style="enable-background:new 0 0 32 32;" xml:space="preserve">
<style type="text/css">
	.st0{fill:#F3E9CC;}
	.st1{fill:#E8DF89;}
	.st2{fill:#231F20;}
</style>
<path class="st0" d="M8.6,13.2C8.6,7.7,12,3,16.2,3c4.2,0,7.6,4.7,7.6,10.2"/>
<path class="st1" d="M17.6,24.1c4-1,7.3-5.3,7.3-10.9H7.5c0,5.6,3.2,9.9,7.3,10.9v3.2h-1.5c-1.5,0-2.3,1.2-2.3,2.7h10.4
	c0-1.5-0.8-2.7-2.3-2.7h-1.5L17.6,24.1L17.6,24.1z"/>
<path class="st2" d="M19.1,26.8h-1v-2.3c4.3-1.2,7.3-5.9,7.3-11.3c0-0.3-0.2-0.5-0.5-0.5h-0.6c-0.2-5.6-3.8-10.2-8.1-10.2
	c-4.3,0-7.9,4.6-8.1,10.2H7.5c-0.3,0-0.5,0.2-0.5,0.5c0,5.4,3,10,7.3,11.3v2.3h-1c-1.7,0-2.8,1.3-2.8,3.2c0,0.3,0.2,0.5,0.5,0.5
	h10.4c0.3,0,0.5-0.2,0.5-0.5C21.9,28.1,20.8,26.8,19.1,26.8z M16.2,3.5c3.7,0,6.9,4.2,7.1,9.2H9.1C9.3,7.7,12.5,3.5,16.2,3.5z
	 M11.5,29.5c0.1-0.9,0.6-1.7,1.8-1.7h1.5c0.3,0,0.5-0.2,0.5-0.5v-3.2c0-0.2-0.2-0.4-0.4-0.5C11,22.7,8.2,18.5,8,13.7h16.4
	c-0.2,4.8-3,8.9-6.9,9.9c-0.2,0-0.4,0.2-0.4,0.5v3.2c0,0.3,0.2,0.5,0.5,0.5h1.5c1.1,0,1.6,0.8,1.7,1.7H11.5z"/>
<g>
	<path class="st2" d="M13.8,9.9c0,0-0.1,0-0.1,0l-2.4-0.6c-0.3-0.1-0.4-0.3-0.4-0.6c0.1-0.3,0.3-0.4,0.6-0.4l1.9,0.5l0.3-1.4
		c0.1-0.2,0.3-0.4,0.5-0.4h1.6l0.9-2c0.1-0.3,0.4-0.4,0.7-0.2c0.2,0.1,0.4,0.4,0.2,0.7l-1.1,2.3c-0.1,0.2-0.3,0.3-0.5,0.3h-1.6
		l-0.4,1.6c0,0.1-0.1,0.2-0.2,0.3C14,9.9,13.9,9.9,13.8,9.9z"/>
</g>
</svg>
