<?xml version="1.0" encoding="utf-8"?>
<!-- Generator: Adobe Illustrator 24.0.0, SVG Export Plug-In . SVG Version: 6.00 Build 0)  -->
<svg version="1.1" id="Layer_1" xmlns="http://www.w3.org/2000/svg" xmlns:xlink="http://www.w3.org/1999/xlink" x="0px" y="0px"
	 viewBox="0 0 32 32" style="enable-background:new 0 0 32 32;" xml:space="preserve">
<style type="text/css">
	.st0{fill:#EAD186;}
	.st1{fill:#DBD2B7;}
	.st2{fill:#231F20;}
	.st3{fill:#A5965E;}
	.st4{fill:none;stroke:#231F20;stroke-linecap:round;stroke-linejoin:round;}
</style>
<path class="st0" d="M28.6,13.7H3.4c0.5-3.9,3.8-11.4,13-10.6C25.8,3.8,28.4,10.5,28.6,13.7z"/>
<path class="st1" d="M3.9,26.2c0-1.6,1.3-2.9,2.9-2.9h18.3c1.6,0,2.9,1.3,2.9,2.9c0,1.6-1.3,2.9-2.9,2.9H6.8
	C5.2,29.1,3.9,27.8,3.9,26.2z"/>
<g>
	<path class="st2" d="M28.5,14.1H3.4c-0.3,0-0.5-0.2-0.5-0.5c0-6.1,5.9-11,13.1-11s13.1,5,13.1,11C29,13.9,28.8,14.1,28.5,14.1z
		 M3.9,13.1H28c-0.3-5.3-5.6-9.5-12-9.5C9.5,3.6,4.2,7.8,3.9,13.1z"/>
</g>
<path class="st3" d="M2,21.4h28v3.9H2V21.4z"/>
<path class="st2" d="M28.8,20.9H3.2c-0.9,0-1.7,0.8-1.7,1.7V24c0,0.8,0.6,1.5,1.4,1.7c0,2.1,1.6,3.8,3.6,3.8h18.8
	c2,0,3.6-1.7,3.6-3.8c0.8-0.1,1.4-0.8,1.4-1.7v-1.5C30.4,21.6,29.7,20.9,28.8,20.9z M25.4,28.5H6.6c-1.4,0-2.6-1.2-2.6-2.8H28
	C28,27.3,26.8,28.5,25.4,28.5z M29.4,24c0,0.4-0.3,0.7-0.7,0.7h-0.3H3.4H3.2c-0.4,0-0.7-0.3-0.7-0.7v-1.5c0-0.4,0.3-0.7,0.7-0.7
	h25.6c0.4,0,0.7,0.3,0.7,0.7V24z"/>
<g>
	<path class="st2" d="M22.6,19c-0.1,0-0.2,0-0.3-0.1l-1.9-1.5l-1.9,1.5c-0.2,0.1-0.4,0.1-0.6,0l-1.9-1.5l-1.9,1.5
		c-0.2,0.1-0.4,0.1-0.6,0l-1.9-1.5l-1.9,1.5C9.3,19,9,19,8.8,18.8l-1.9-1.5L5,18.8c-0.2,0.1-0.4,0.1-0.6,0L2.1,17
		c-0.2-0.2-0.3-0.5-0.1-0.7c0.2-0.2,0.5-0.3,0.7-0.1l1.9,1.5l1.9-1.5c0.2-0.1,0.4-0.1,0.6,0l1.9,1.5l1.9-1.5c0.2-0.2,0.5-0.2,0.7,0
		l1.9,1.5l1.9-1.5c0.2-0.1,0.4-0.1,0.6,0l1.9,1.5l1.9-1.5c0.2-0.1,0.4-0.1,0.6,0l1.9,1.5l1.9-1.5c0.2-0.1,0.4-0.1,0.6,0l1.9,1.5
		l1.9-1.5c0.2-0.2,0.5-0.1,0.7,0.1c0.2,0.2,0.1,0.5-0.1,0.7l-2.2,1.7c-0.2,0.1-0.4,0.1-0.6,0l-1.9-1.5l-1.9,1.5
		C22.8,19,22.7,19,22.6,19z"/>
</g>
<path class="st4" d="M12.8,6.6h0.3"/>
<path class="st4" d="M16.4,8.9h0.3"/>
<path class="st4" d="M18.8,6.6h0.3"/>
</svg>
