<?xml version="1.0" encoding="utf-8"?>
<!-- Generator: Adobe Illustrator 24.0.0, SVG Export Plug-In . SVG Version: 6.00 Build 0)  -->
<svg version="1.1" id="Layer_1" xmlns="http://www.w3.org/2000/svg" xmlns:xlink="http://www.w3.org/1999/xlink" x="0px" y="0px"
	 viewBox="0 0 30 30" style="enable-background:new 0 0 30 30;" xml:space="preserve">
<g>
	<path d="M21,22.3H9c-1.1,0-2-0.9-2-2V9.9c0-1.1,0.9-2,2-2h12c1.1,0,2,0.9,2,2v10.4C23,21.4,22.1,22.3,21,22.3z M9,9.5
		c-0.2,0-0.4,0.2-0.4,0.4v10.4c0,0.2,0.2,0.4,0.4,0.4h12c0.2,0,0.4-0.2,0.4-0.4V9.9c0-0.2-0.2-0.4-0.4-0.4H9z"/>
</g>
<path d="M7,5.8C7,5.3,7.3,5,7.8,5h14.4C22.7,5,23,5.3,23,5.8s-0.3,0.8-0.8,0.8H7.8C7.3,6.6,7,6.2,7,5.8z"/>
<path d="M7,24.2c0-0.4,0.3-0.8,0.8-0.8h14.4c0.4,0,0.8,0.3,0.8,0.8c0,0.4-0.3,0.8-0.8,0.8H7.8C7.3,25,7,24.7,7,24.2z"/>
</svg>
