<?xml version="1.0" encoding="utf-8"?>
<!-- Generator: Adobe Illustrator 24.0.0, SVG Export Plug-In . SVG Version: 6.00 Build 0)  -->
<svg version="1.1" id="Layer_1" xmlns="http://www.w3.org/2000/svg" xmlns:xlink="http://www.w3.org/1999/xlink" x="0px" y="0px"
	 viewBox="0 0 32 32" style="enable-background:new 0 0 32 32;" xml:space="preserve">
<style type="text/css">
	.st0{fill:#231F20;}
	.st1{fill:#EFB3B3;}
	.st2{fill:#7ABAB1;}
</style>
<g>
	<path class="st0" d="M16.4,9.7C16.4,9.7,16.4,9.7,16.4,9.7c-0.3,0-0.5-0.2-0.5-0.4c0-0.2-0.8-6.1,2-7.7c0.2-0.1,0.4-0.1,0.5,0
		c0.2,0.1,0.2,0.3,0.2,0.5c0,0,0,0.1,0.2,0.1c0.2,0.1,0.4,0.2,0.4,0.4c0.2,0.4-0.1,0.9-0.5,1.7c-0.6,1.1-1.5,2.7-1.9,5
		C16.9,9.5,16.7,9.7,16.4,9.7z M18,2.8c-0.7,0.7-1,1.9-1.1,3.1c0.4-0.8,0.7-1.5,1-2c0.2-0.3,0.3-0.6,0.4-0.8C18.2,3,18.1,2.9,18,2.8
		z"/>
</g>
<path class="st1" d="M13.3,9.5C10.5,10,6.8,11.4,7,15.6c0.3,6.7,6.9,15.1,9.4,15.1c3.1,0,10.2-10.2,9.6-15.4c-0.3-2.3-1.9-4-4.3-5"
	/>
<g>
	<path class="st0" d="M16.4,31.2c-2.9,0-9.6-8.9-9.9-15.6C6.4,12.2,8.7,9.8,13.2,9c0.3,0,0.5,0.1,0.6,0.4c0,0.3-0.1,0.5-0.4,0.6
		c-2.7,0.5-6,1.9-5.8,5.6c0.3,6.7,6.9,14.6,8.9,14.6c0.8,0,2.1-0.9,3.5-2.5c3-3.4,6-9,5.7-12.3c-0.2-2-1.6-3.6-4-4.6
		c-0.3-0.1-0.4-0.4-0.3-0.7s0.4-0.4,0.7-0.3c2.7,1.1,4.3,3.1,4.6,5.4c0.4,3.6-2.7,9.5-5.9,13.1C19.4,29.6,17.8,31.2,16.4,31.2z"/>
</g>
<g>
	<path class="st0" d="M16.9,19.2c-0.3,0-0.5-0.2-0.5-0.5v-1c0-0.3,0.2-0.5,0.5-0.5s0.5,0.2,0.5,0.5v1C17.4,19,17.1,19.2,16.9,19.2z"
		/>
</g>
<g>
	<path class="st0" d="M17,27.3c0,0-0.1,0-0.1,0c-0.3-0.1-0.4-0.3-0.4-0.6l0.2-1c0.1-0.3,0.3-0.4,0.6-0.4c0.3,0.1,0.4,0.3,0.4,0.6
		l-0.2,1C17.4,27.1,17.2,27.3,17,27.3z"/>
</g>
<g>
	<path class="st0" d="M13.1,22.4c-0.3,0-0.5-0.2-0.5-0.5l-0.1-1c0-0.3,0.2-0.5,0.4-0.5c0.3,0,0.5,0.2,0.5,0.4l0.1,1
		C13.6,22.1,13.4,22.4,13.1,22.4C13.1,22.4,13.1,22.4,13.1,22.4z"/>
</g>
<g>
	<path class="st0" d="M21.7,18.3c-0.3,0-0.5-0.2-0.5-0.5v-1c0-0.3,0.2-0.5,0.5-0.5s0.5,0.2,0.5,0.5v1C22.2,18.1,22,18.3,21.7,18.3z"
		/>
</g>
<g>
	<path class="st0" d="M19.6,23.2c-0.1,0-0.2,0-0.3-0.1c-0.2-0.1-0.3-0.5-0.2-0.7l0.6-0.9c0.1-0.2,0.5-0.3,0.7-0.2
		c0.2,0.1,0.3,0.5,0.2,0.7L20.1,23C20,23.1,19.8,23.2,19.6,23.2z"/>
</g>
<g>
	<path class="st0" d="M10.9,18.3c-0.3,0-0.5-0.2-0.5-0.5v-1c0-0.3,0.2-0.5,0.5-0.5s0.5,0.2,0.5,0.5v1C11.4,18.1,11.2,18.3,10.9,18.3
		z"/>
</g>
<g>
	<path class="st0" d="M12.8,15.1c-0.1,0-0.2,0-0.2-0.1c-0.2-0.1-0.3-0.4-0.2-0.7l0.5-0.9c0.1-0.2,0.4-0.3,0.7-0.2
		c0.2,0.1,0.3,0.4,0.2,0.7l-0.5,0.9C13.1,15,12.9,15.1,12.8,15.1z"/>
</g>
<g>
	<path class="st0" d="M17.9,14.3c-0.2,0-0.4-0.1-0.5-0.4l-0.3-1c-0.1-0.3,0.1-0.5,0.3-0.6c0.3-0.1,0.5,0.1,0.6,0.3l0.3,1
		c0.1,0.3-0.1,0.5-0.3,0.6C18,14.3,17.9,14.3,17.9,14.3z"/>
</g>
<path class="st2" d="M16.4,9.2c0.2-5.1,9.3-3.5,9.3-3.5S22.2,13.9,16.4,9.2z"/>
<path class="st0" d="M20,11.2c-1.3,0-2.5-0.5-3.8-1.6c-0.1-0.1-0.2-0.3-0.2-0.4c0-1.2,0.5-2.1,1.4-2.8c2.7-2.2,8.3-1.2,8.5-1.2
	c0.2,0,0.3,0.1,0.4,0.3s0.1,0.3,0,0.4c-0.1,0.2-1.9,4.3-5.1,5.1C20.7,11.1,20.3,11.2,20,11.2z M17,9c1.3,1,2.6,1.4,3.9,1.1
	c2.1-0.5,3.6-2.8,4.2-3.9c-1.5-0.2-5.2-0.4-7,1C17.4,7.6,17,8.2,17,9z"/>
<g>
	<path class="st2" d="M7.4,4.2c0.8,3.9,4.8,6.2,9,5C15.6,5.4,11.7,3,7.4,4.2z"/>
	<path class="st0" d="M14.2,10.1c-1.4,0-2.7-0.4-3.9-1C8.6,8,7.4,6.3,6.9,4.3C6.9,4.1,7,3.8,7.3,3.8c2.2-0.7,4.4-0.4,6.3,0.7
		c1.7,1,2.9,2.7,3.4,4.7c0.1,0.3-0.1,0.5-0.3,0.6C15.8,9.9,15,10.1,14.2,10.1z M8,4.6c0.4,1.5,1.4,2.8,2.8,3.6
		c1.5,0.9,3.2,1.1,5,0.7c-0.4-1.5-1.4-2.8-2.8-3.6C11.6,4.4,9.8,4.2,8,4.6z"/>
</g>
</svg>
