<svg width="30" height="30" viewBox="0 0 30 30" fill="none" xmlns="http://www.w3.org/2000/svg">
<path d="M7.92139 10.8358L9.63794 18.0046C9.63794 18.0111 9.63132 18.0177 9.63132 18.0242L9.17401 19.352C9.10111 19.7117 9.37947 20.0388 9.74399 20.0388H21.5677" stroke="#A9A9A9" stroke-width="1.4" stroke-miterlimit="10" stroke-linecap="round" stroke-linejoin="round"/>
<path d="M23.6421 10.8364H7.9213L8.32558 8.82833C8.25931 8.50783 7.97432 8.2789 7.63631 8.2789H5.18408" stroke="#A9A9A9" stroke-width="1.4" stroke-miterlimit="10" stroke-linecap="round" stroke-linejoin="round"/>
<path d="M23.9998 9.54059L22.3164 15.6367C22.1772 16.1468 21.7332 16.5262 21.203 16.5916L9.6311 18.0306" stroke="#A9A9A9" stroke-width="1.4" stroke-miterlimit="10" stroke-linecap="round" stroke-linejoin="round"/>
<path d="M10.4397 21.9429C9.74377 21.9429 9.18042 22.4923 9.18042 23.1791C9.18042 23.8593 9.74377 24.4153 10.4397 24.4153C11.1356 24.4153 11.6923 23.8659 11.6923 23.1791C11.6989 22.4923 11.1356 21.9429 10.4397 21.9429Z" stroke="#A9A9A9" stroke-width="1.4" stroke-miterlimit="10" stroke-linecap="round" stroke-linejoin="round"/>
<path d="M20.3215 21.9429C19.6256 21.9429 19.0688 22.4923 19.0688 23.1791C19.0688 23.8593 19.6322 24.4153 20.3215 24.4153C21.0174 24.4153 21.5741 23.8659 21.5741 23.1791C21.5741 22.4923 21.0107 21.9429 20.3215 21.9429Z" stroke="#A9A9A9" stroke-width="1.4" stroke-miterlimit="10" stroke-linecap="round" stroke-linejoin="round"/>
<path d="M11.7749 8.37572L17.5474 5.58469L20.2487 8.40928" stroke="#A9A9A9" stroke-width="1.4" stroke-miterlimit="10" stroke-linecap="round" stroke-linejoin="round"/>
</svg>
