<svg width="30" height="30" viewBox="0 0 30 30" fill="none" xmlns="http://www.w3.org/2000/svg">
<path d="M12.4829 17.9304C13.1729 18.6804 14.1329 19.1504 15.1929 19.1504C17.2729 19.1504 18.9629 17.3804 18.9629 15.2004C18.9629 15.1704 18.9529 15.1404 18.9529 15.1104L17.9229 15.5604C17.7529 17.0204 16.6029 18.1504 15.1829 18.1504C14.5329 18.1504 13.9429 17.9004 13.4629 17.5004L12.4829 17.9304Z" fill="#A9A9A9"/>
<path d="M17.9029 12.47C17.2129 11.72 16.2529 11.25 15.1929 11.25C13.1129 11.25 11.4229 13.02 11.4229 15.2C11.4229 15.23 11.4329 15.26 11.4329 15.29L12.4629 14.84C12.6329 13.38 13.7829 12.25 15.2029 12.25C15.8529 12.25 16.4429 12.5 16.9229 12.9L17.9029 12.47Z" fill="#A9A9A9"/>
<path d="M13.543 14.37L15.773 13.4C15.583 13.34 15.393 13.3 15.193 13.29C14.463 13.29 13.843 13.73 13.543 14.37Z" fill="#A9A9A9"/>
<path d="M16.8528 16.0195L14.5928 17.0095C14.7828 17.0795 14.9828 17.1195 15.1928 17.1195C15.9328 17.1195 16.5628 16.6695 16.8528 16.0195Z" fill="#A9A9A9"/>
<path d="M7.87291 16.84C7.62291 16.32 7.48291 15.77 7.48291 15.21C7.48291 12.34 10.9429 10 15.1929 10C17.2029 10 19.0329 10.53 20.4029 11.38L21.4729 10.92C19.8829 9.74 17.6629 9 15.1929 9C10.3929 9 6.48291 11.78 6.48291 15.21C6.48291 15.92 6.66291 16.6 6.97291 17.23L7.87291 16.84Z" fill="#A9A9A9"/>
<path d="M25.0068 10.4157L5 19.124L5.37914 19.9951L25.3859 11.2867L25.0068 10.4157Z" fill="#A9A9A9"/>
<path d="M22.5033 13.5602C22.7633 14.0802 22.9033 14.6302 22.9033 15.2002C22.9033 18.0702 19.4433 20.4102 15.1933 20.4102C13.1733 20.4102 11.3433 19.8802 9.96332 19.0202L8.90332 19.4802C10.4933 20.6602 12.7233 21.4102 15.1933 21.4102C19.9933 21.4102 23.9033 18.6302 23.9033 15.2002C23.9033 14.4902 23.7233 13.8002 23.4133 13.1602L22.5033 13.5602Z" fill="#A9A9A9"/>
</svg>
