<?xml version="1.0" encoding="utf-8"?>
<!-- Generator: Adobe Illustrator 24.0.0, SVG Export Plug-In . SVG Version: 6.00 Build 0)  -->
<svg version="1.1" id="Layer_1" xmlns="http://www.w3.org/2000/svg" xmlns:xlink="http://www.w3.org/1999/xlink" x="0px" y="0px"
	 viewBox="0 0 32 32" style="enable-background:new 0 0 32 32;" xml:space="preserve">
<style type="text/css">
	.st0{fill:#D3A881;}
	.st1{fill:#E1CD93;}
	.st2{fill:#231F20;}
</style>
<path class="st0" d="M4.1,23.2L4,23.1c-1.3-1.3-1.3-3.5,0-4.8L18.3,4c1.3-1.3,3.5-1.3,4.8,0l0.1,0.1"/>
<path class="st0" d="M27.9,8.8L28,8.9c1.3,1.3,1.3,3.5,0,4.8L13.7,28c-1.3,1.3-3.5,1.3-4.8,0l-0.1-0.1"/>
<path class="st1" d="M27.2,9.5L9.5,27.2c-1.3,1.3-3.4,1.3-4.7,0c-1.3-1.3-1.3-3.4,0-4.7L22.6,4.8c1.3-1.3,3.4-1.3,4.7,0
	C28.5,6.1,28.5,8.2,27.2,9.5z"/>
<path class="st2" d="M28.4,8.5c0.5-1.4,0.3-3-0.8-4.1c-1.1-1.1-2.7-1.4-4.1-0.8c-1.5-1.5-4-1.5-5.5,0L3.6,18c-1.5,1.5-1.5,4,0,5.5
	c-0.2,0.4-0.3,0.9-0.3,1.4c0,1,0.4,2,1.1,2.7c0.7,0.7,1.7,1.1,2.7,1.1c0.5,0,1-0.1,1.4-0.3c0.8,0.7,1.7,1.1,2.7,1.1
	c1,0,2-0.4,2.8-1.1L28.4,14c0.7-0.7,1.1-1.7,1.1-2.7C29.5,10.2,29.1,9.3,28.4,8.5z M4.3,18.7L18.7,4.3c1.1-1.1,2.7-1.1,3.9-0.2
	c-0.1,0.1-0.2,0.2-0.4,0.3L4.5,22.2c-0.1,0.1-0.2,0.2-0.3,0.4C3.2,21.4,3.3,19.7,4.3,18.7z M5.2,26.8c-0.5-0.5-0.8-1.2-0.8-2
	c0-0.7,0.3-1.4,0.8-2L22.9,5.2c0.5-0.5,1.3-0.8,2-0.8s1.4,0.3,2,0.8C28,6.2,28,8,26.9,9.1L9.1,26.8C8,27.9,6.3,27.9,5.2,26.8z
	 M27.7,13.3L13.3,27.7c-1.1,1.1-2.7,1.1-3.9,0.2c0.1-0.1,0.3-0.2,0.4-0.3L27.6,9.8c0.1-0.1,0.2-0.2,0.3-0.4c0.4,0.5,0.7,1.1,0.7,1.8
	C28.5,12.1,28.2,12.8,27.7,13.3z"/>
<g>
	<path class="st2" d="M7.3,25.2c-0.3,0-0.5-0.2-0.5-0.5c0-1.7,1.3-3,3-3c1.1,0,2-0.9,2-2c0-1.7,1.3-3,3-3c1.1,0,2-0.9,2-2
		c0-1.7,1.3-3,3-3c1.1,0,2-0.9,2-2c0-1.7,1.3-3,3-3c0.3,0,0.5,0.2,0.5,0.5S25,7.8,24.7,7.8c-1.1,0-2,0.9-2,2c0,1.7-1.3,3-3,3
		c-1.1,0-2,0.9-2,2c0,1.7-1.3,3-3,3c-1.1,0-2,0.9-2,2c0,1.7-1.3,3-3,3c-1.1,0-2,0.9-2,2C7.8,25,7.5,25.2,7.3,25.2z"/>
</g>
</svg>
