<?xml version="1.0" encoding="utf-8"?>
<!-- Generator: Adobe Illustrator 24.0.0, SVG Export Plug-In . SVG Version: 6.00 Build 0)  -->
<svg version="1.1" id="Layer_1" xmlns="http://www.w3.org/2000/svg" xmlns:xlink="http://www.w3.org/1999/xlink" x="0px" y="0px"
	 viewBox="0 0 30 30" style="enable-background:new 0 0 30 30;" xml:space="preserve">
<style type="text/css">
	.st0{fill-rule:evenodd;clip-rule:evenodd;}
</style>
<path class="st0" d="M25.7,14.3C25.5,14.1,25.3,14,25,14H7.4l4.3-4.3c0.1-0.1,0.2-0.2,0.2-0.3C12,9.3,12,9.1,12,9
	c0-0.1,0-0.3-0.1-0.4c-0.1-0.1-0.1-0.2-0.2-0.3c-0.1-0.1-0.2-0.2-0.3-0.2C11.3,8,11.1,8,11,8c-0.1,0-0.3,0-0.4,0.1
	c-0.1,0.1-0.2,0.1-0.3,0.2l-6,6c-0.1,0.1-0.2,0.2-0.2,0.3C4,14.7,4,14.9,4,15c0,0.1,0,0.3,0.1,0.4s0.1,0.2,0.2,0.3l6,6
	c0.2,0.2,0.4,0.3,0.7,0.3s0.5-0.1,0.7-0.3c0.2-0.2,0.3-0.4,0.3-0.7c0-0.3-0.1-0.5-0.3-0.7L7.4,16H25c0.3,0,0.5-0.1,0.7-0.3
	S26,15.3,26,15C26,14.7,25.9,14.5,25.7,14.3z"/>
</svg>
