<?xml version="1.0" encoding="utf-8"?>
<!-- Generator: Adobe Illustrator 24.0.0, SVG Export Plug-In . SVG Version: 6.00 Build 0)  -->
<svg version="1.1" id="Layer_1" xmlns="http://www.w3.org/2000/svg" xmlns:xlink="http://www.w3.org/1999/xlink" x="0px" y="0px"
	 viewBox="0 0 30 30" style="enable-background:new 0 0 30 30;" xml:space="preserve">
<g>
	<path d="M15,26l-0.4-0.3c-4.2-2.8-11.4-8.2-11.4-13.1c0-4.2,3-7.4,7-7.4c1.6,0,3.1,0.7,4.8,2.2c1.6-1.4,3.3-2.2,4.9-2.2
		c1.9,0,3.6,0.7,4.8,2c1.4,1.4,2.1,3.3,2.1,5.5c-0.1,5.2-8,10.9-11.4,13.1L15,26z M10.2,6.8c-3.2,0-5.4,2.4-5.4,5.8
		c0,2.9,3.8,7.2,10.2,11.4c5-3.3,10.1-8,10.2-11.5c0-1.7-0.5-3.2-1.6-4.3c-1-1-2.2-1.5-3.7-1.5c-1.4,0-2.8,0.8-4.3,2.2L15,9.6
		L14.4,9C12.8,7.5,11.5,6.8,10.2,6.8z"/>
</g>
</svg>
