<?xml version="1.0" encoding="utf-8"?>
<!-- Generator: Adobe Illustrator 24.0.0, SVG Export Plug-In . SVG Version: 6.00 Build 0)  -->
<svg version="1.1" id="Layer_1" xmlns="http://www.w3.org/2000/svg" xmlns:xlink="http://www.w3.org/1999/xlink" x="0px" y="0px"
	 viewBox="0 0 220 188" style="enable-background:new 0 0 220 188;" xml:space="preserve">
<style type="text/css">
	.st0{fill:#231F20;}
</style>
<path d="M113.1,107.9c-0.7,0-1.3-0.5-1.4-1.2c-0.1-0.8,0.4-1.5,1.2-1.7c18.6-3.3,21.4-14,21.4-20c0-0.8,0.7-1.5,1.5-1.5
	c0.8,0,1.5,0.7,1.5,1.5c0,11.9-8.7,20.2-23.8,22.9C113.3,107.9,113.2,107.9,113.1,107.9z"/>
<path d="M132.9,6.4c-0.3-1-1.1-1.8-2-2.2c-0.8-0.4-1.7-0.5-2.6-0.3c-0.4-0.8-1-1.5-1.8-1.9c-0.9-0.5-2-0.5-3-0.2
	c-1,0.3-1.8,1.1-2.2,2c-0.7,1.5-0.4,3.2,0.6,4.4l-2,4.1c-0.1,0.1-0.1,0.3-0.1,0.4c-4.3,1.3-8.9,6.1-11,10.3
	c-1.3,2.8-1.6,5.5-0.8,7.8c0.8,2.1,2.4,3.9,4.8,5c1.5,0.7,3,1.1,4.4,1.1c0.9,0,1.7-0.1,2.5-0.4c2.4-0.8,4.3-2.7,5.7-5.4
	c1.4-2.8,2.2-6.6,2.2-10c0-2-0.3-3.7-0.9-5.1c0.1-0.1,0.2-0.2,0.3-0.3l2-4.1c1.6,0.1,3.1-0.7,3.8-2.2C133.2,8.5,133.2,7.4,132.9,6.4
	z M122.7,29.9c-1,2.1-2.3,3.4-4,3.9c-1.4,0.5-3.1,0.3-4.7-0.5c-1.7-0.8-2.8-2-3.3-3.4c-0.6-1.6-0.4-3.5,0.7-5.5
	c2.1-4.3,7.3-9,10.3-9c0.4,0,0.7,0.1,1,0.2c1.2,0.6,1.9,2.7,1.9,5.6C124.6,24.1,123.9,27.5,122.7,29.9z M130.1,8.2
	c-0.2,0.5-0.9,0.7-1.4,0.5c-0.3-0.2-0.7-0.2-1.1-0.1c-0.4,0.1-0.7,0.4-0.8,0.7l-2,4.2c-0.3-0.2-0.6-0.4-0.9-0.6
	c-0.3-0.1-0.6-0.3-1-0.3l2-4.2c0.4-0.7,0-1.6-0.7-1.9c-0.5-0.2-0.7-0.9-0.5-1.4c0.1-0.2,0.3-0.4,0.6-0.5c0.3-0.1,0.5-0.1,0.8,0
	c0.2,0.1,0.4,0.3,0.5,0.6c0.1,0.3,0.1,0.5,0,0.8c-0.4,0.7,0,1.6,0.7,1.9c0.7,0.4,1.6,0,1.9-0.7c0.1-0.2,0.3-0.4,0.6-0.5
	c0.3-0.1,0.5-0.1,0.8,0c0.2,0.1,0.4,0.3,0.5,0.6C130.2,7.6,130.2,7.9,130.1,8.2z"/>
<path d="M82.6,42.8c-2.2-5-5.2-7.3-8.7-6.9l1.6-4.2c0.3-0.7-0.1-1.6-0.8-1.9c-0.7-0.3-1.6,0.1-1.9,0.8l-1.3,3.3l-1.4-3.1
	c-0.3-0.7-1.2-1.1-1.9-0.7c-0.7,0.3-1.1,1.2-0.7,1.9l1.4,3.1l-3.3-1.3c-0.7-0.3-1.6,0.1-1.9,0.8c-0.3,0.7,0.1,1.6,0.8,1.9l4.2,1.6
	c-2.7,2.4-2.9,6.1-0.6,11.2C70.4,54.3,77.9,66,83,66c0.4,0,0.8-0.1,1.2-0.3C89.2,63.5,85.1,48.2,82.6,42.8z M83,63.1
	c-0.2,0.1-2-0.3-5.5-4.5c-2.6-3.1-5.3-7.3-6.7-10.5c-2.7-6-0.7-7.8,1.5-8.9c0.7-0.3,1.5-0.6,2.2-0.6c1.7,0,3.6,1.2,5.4,5.3
	c1.4,3.2,2.8,8,3.4,12C84.1,61.4,83.3,63,83,63.1z"/>
<path d="M125.8,70.3c-5.5,0-9.9-4.4-9.9-9.9c0-5.5,4.4-9.9,9.9-9.9c5.5,0,9.9,4.4,9.9,9.9C135.7,65.8,131.3,70.3,125.8,70.3z
	 M125.8,53.4c-3.9,0-7,3.1-7,7c0,3.9,3.1,7,7,7s7-3.1,7-7C132.8,56.5,129.7,53.4,125.8,53.4z"/>
<path d="M125.8,62.2c1.2,0,2.2-1,2.2-2.2c0-1.2-1-2.2-2.2-2.2s-2.2,1-2.2,2.2C123.6,61.3,124.6,62.2,125.8,62.2z"/>
<path d="M131.7,43.6c1.2,0,2.2-1,2.2-2.2c0-1.2-1-2.2-2.2-2.2s-2.2,1-2.2,2.2C129.4,42.6,130.4,43.6,131.7,43.6z"/>
<path d="M89.7,36.1c1.2,0,2.2-1,2.2-2.2s-1-2.2-2.2-2.2c-1.2,0-2.2,1-2.2,2.2S88.5,36.1,89.7,36.1z"/>
<path d="M108.2,69c1.2,0,2.2-1,2.2-2.2s-1-2.2-2.2-2.2s-2.2,1-2.2,2.2S107,69,108.2,69z"/>
<path d="M66.4,66.8c1.2,0,2.2-1,2.2-2.2c0-1.2-1-2.2-2.2-2.2c-1.2,0-2.2,1-2.2,2.2C64.1,65.8,65.1,66.8,66.4,66.8z"/>
<path class="st0" d="M106.9,9.7c1.2,0,2.2-1,2.2-2.2c0-1.2-1-2.2-2.2-2.2c-1.2,0-2.2,1-2.2,2.2C104.7,8.7,105.7,9.7,106.9,9.7z"/>
<path d="M95.4,7.1C91.2,0.6,81.1,0,80.6,0c-0.6,0-1.2,0.3-1.4,0.9c-0.2,0.4-3.8,9.8,0.4,16.3c4.2,6.5,14.3,7,14.7,7.1c0,0,0,0,0.1,0
	c0.6,0,1.1-0.4,1.3-0.9C95.9,23,99.5,13.5,95.4,7.1z M92.9,8.6c2.1,3.3,1.6,7.8,1,10.7l-5-7.7l1.2-5.8C91.2,6.7,92.2,7.5,92.9,8.6z
	 M80.9,12.7C80.2,10,80.6,7,81.1,4.9L87,14L80.9,12.7z M86.7,8.3l-3.2-4.9c1.2,0.2,2.6,0.6,4,1.2L86.7,8.3z M82.3,16l6.9,1.5
	l2.3,3.5C88.6,20.4,84.5,19,82.3,16z"/>
<path d="M112.3,42c-5.2-3.6-12.4-2.2-15.9,3c-1.7,2.5-2.4,5.6-1.8,8.6c0.6,3,2.3,5.6,4.8,7.4c0.2,0.2,0.5,0.3,0.8,0.3
	c0.5,0,0.9-0.2,1.2-0.6L112.7,44c0.2-0.3,0.3-0.7,0.2-1.1C112.8,42.5,112.6,42.2,112.3,42z M99.9,57.6c-1.3-1.2-2.1-2.8-2.5-4.6
	c-0.4-2.2,0.1-4.5,1.4-6.4c1.7-2.4,4.3-3.7,7.1-3.7c1.2,0,2.4,0.3,3.6,0.8l-1.5,2.3c-1-0.4-2.1-0.5-3.3-0.3
	c-1.6,0.3-2.9,1.2-3.8,2.5c-0.9,1.3-1.2,2.9-0.9,4.5c0.2,1.1,0.7,2.1,1.5,2.9L99.9,57.6z M102.7,52c-0.2-0.8,0-1.6,0.5-2.3
	c0.5-0.7,1.2-1.1,2-1.3c0.2,0,0.4-0.1,0.6-0.1c0.1,0,0.2,0,0.3,0l-3.1,4.5C102.8,52.6,102.7,52.3,102.7,52z"/>
<path d="M146.6,80.8h-3.5c-0.4-1.9-0.9-3.8-1.6-5.6c-0.2-0.6-0.8-0.9-1.4-0.9H59.5c-0.6,0-1.1,0.4-1.4,0.9c-0.7,1.9-1.3,3.7-1.6,5.6
	H53c-2.8,0-5,2.3-5,5c0,2.8,2.3,5,5,5h3.3c0.8,5.3,2.8,10.2,6,14.1c4.3,5.2,10.3,8.5,17.3,9.6c5,0.7,12.6,1.1,20.1,1.1
	c7.6,0,15.2-0.4,20.1-1.1c7-1,13-4.3,17.3-9.6c3.2-3.9,5.3-8.8,6-14.1h3.3c2.8,0,5-2.3,5-5C151.6,83.1,149.4,80.8,146.6,80.8z
	 M53,88c-1.2,0-2.1-1-2.1-2.1c0-1.2,1-2.1,2.1-2.1h3.1C56,84.6,56,85.5,56,86.5c0,0.5,0,1,0.1,1.5H53z M119.5,111.7
	c-9.8,1.4-29.7,1.4-39.4,0c-12.7-1.8-21.2-12-21.2-25.2c0-3.1,0.5-6.3,1.6-9.3h78.7c1.1,3,1.6,6.2,1.6,9.3
	C140.7,99.7,132.2,109.9,119.5,111.7z M146.6,88h-3c0-0.5,0.1-1,0.1-1.5c0-0.9,0-1.8-0.1-2.7h3.1c1.2,0,2.1,1,2.1,2.1
	C148.7,87,147.8,88,146.6,88z"/>
<g>
	<path d="M195.4,171.1l-0.5,0.3c-1.4,0.7-2.5,1.1-3.5,1.1c-1.3,0-2.2-0.5-2.8-1.4c-0.6-1-1-2.5-1-4.8c0-2.1,0.1-4,0.4-5.8
		c0.1-0.7,0.2-1.4,0.3-2.3c0.1-0.5,0.2-0.8,0.2-1.2c0.3,0.1,0.7,0.1,1.3,0.2c1,0.2,2,0.3,2.8,0.3c0.9,0,1.9-0.3,2.7-0.9l0,0
		c0.9-0.7,1.5-1.6,1.5-2.7c0-1-0.2-1.9-0.7-2.7l-0.3-0.4l-0.5,0.1c-2,0.6-4,0.9-6.2,1c0.1-1.5,0.2-2.8,0.2-4c0-1.5-0.4-2.7-1.2-3.5
		c-0.8-0.8-1.9-1.2-3.1-1.2c-1.2,0-2.4,0.3-3.5,0.9l-0.5,0.2l0.2,0.5c0.5,1.8,0.8,3.9,0.8,6.4c0,0.1,0,0.3,0,0.4c-0.3,0-0.6,0-1,0
		c-1,0-1.8,0.3-2.5,1c-0.7,0.6-1.1,1.4-1.1,2.4c0,0.9,0.2,1.7,0.7,2.4l0.3,0.5l0.5-0.2c0.7-0.4,1.7-0.6,2.9-0.7
		c0,1.4-0.2,3.2-0.4,5.3v0c-0.3,2.5-0.4,4.3-0.4,5.3c0,3.4,0.7,6.1,2.3,7.9c1.6,1.8,4,2.7,7,2.7c1.6,0,2.9-0.3,4.1-0.9l0,0
		c1.2-0.6,2-1.6,2-2.9c0-1.1-0.2-2-0.8-2.8L195.4,171.1z"/>
	<path d="M148.7,176.5c-0.9-4.2-1.5-8-1.8-11.5c-0.3-3.6-0.4-7.6-0.4-12.1l0.2-8.2v0c0-1.2-0.5-2.2-1.5-2.9c-0.9-0.6-2-0.8-3.3-0.8
		c-1.2,0-2.4,0.2-3.6,0.5l-0.4,0.1l-0.1,0.4c-0.2,1.6-0.8,3.6-1.6,5.8v0c-0.8,2.2-1.6,4.2-2.5,5.8v0c-0.8,1.6-1.8,3.6-3,5.9v0
		c-0.7,1.4-1.3,2.5-1.7,3.3c-1.1-2.3-2.5-5.4-4.2-9.3c-1.9-4.6-3.4-7.9-4.4-10l0,0c-0.8-1.6-2.3-2.3-4.3-2.3c-1.1,0-2.5,0.2-4.3,0.7
		l-0.5,0.1l0.1,0.6c0.4,2.9,0.5,6,0.5,9.3c0,3.3-0.4,7.4-1.1,12.2v0c-0.7,4.8-1.1,8.1-1.1,9.8c0,1.2,0.3,2.1,1,2.8
		c0.7,0.7,1.7,1,2.8,1c1.1,0,2.3-0.2,3.4-0.6l0.5-0.2l-0.1-0.5c-0.3-2.5-0.4-5.8-0.4-9.9c0-3.5,0.3-7.5,1-11.9
		c0.9,2,1.8,4.3,2.8,6.8l0,0c1.4,3.4,2.4,5.7,2.9,6.8l0,0c0.6,1.2,1.3,2.2,2.2,2.9l0,0c1,0.8,2.1,1.1,3.4,1.1c1.3,0,2.4-0.2,3.3-0.8
		l0.4-0.3l-0.2-0.5c-0.1-0.4-0.2-0.9-0.2-1.8c0-0.1,0-0.3,0.2-0.7c0.1-0.4,0.3-0.8,0.5-1.4c0.5-1.1,1.2-2.6,2.2-4.5
		c1.5-3,3-5.5,4.4-7.7c0,2.3-0.2,5.1-0.3,8.5v0c-0.2,4.6-0.3,8-0.3,10.2c0,1.5,0.4,2.7,1.4,3.5c0.9,0.8,2.3,1.2,3.9,1.2
		c1.6,0,3-0.3,3.9-1l0.3-0.2L148.7,176.5z"/>
	<path d="M174.8,165.3c0-3.8,0.4-7.6,1.3-11.3l0.1-0.6l-0.5-0.2c-4-1.4-8-2.1-11.8-2.1c-4,0-7.2,1.7-9.7,5.1
		c-2.4,3.3-3.7,7.1-3.7,11.5c0,2.9,0.7,5.4,2.2,7.4l0,0c1.5,2,3.7,3,6.4,3c1.2,0,2.3-0.3,3.4-1c1.8-1.1,3.5-3.2,5.3-6.4
		c-0.1,0.8-0.1,1.5-0.1,2.1c0,1.5,0.3,2.7,0.8,3.6l0,0c0.7,1,1.8,1.4,3.2,1.4c1.3,0,2.6-0.2,3.9-0.6l0.6-0.2l-0.1-0.6
		C175.3,172.7,174.8,169,174.8,165.3z M164.1,167.6c-0.9,1.7-1.7,2.9-2.4,3.7c-0.7,0.8-1.2,1.1-1.5,1.1c-0.6,0-1.1-0.4-1.6-1.9
		c-0.4-1.5-0.7-3-0.7-4.4c0-2.7,0.5-5.4,1.6-8.1c1.1-0.9,2.7-1.4,5-1.4c1,0,2.2,0.2,3.7,0.6C167.2,161,165.8,164.5,164.1,167.6z"/>
	<path d="M218,167.7c-0.9-0.6-2.1-1-3.3-1H214v0.6c0,1.6-0.5,2.9-1.4,4c-0.9,1-2.1,1.6-3.7,1.6c-1.6,0-2.6-0.6-3.3-1.7
		c-0.6-1.1-1-2.7-1.1-4.6c1,0.1,1.9,0.1,2.8,0.1c3.3,0,6.1-0.6,8.5-1.9h0c2.4-1.4,3.7-3.4,3.7-6.1c0-2.6-0.8-4.7-2.6-6
		c-1.7-1.3-3.9-1.9-6.6-1.9c-4,0-7.2,1.5-9.6,4.4c-2.4,2.8-3.5,6.4-3.5,10.5c0,4.1,0.9,7.3,2.7,9.5l0,0c1.9,2.2,4.8,3.3,8.7,3.3
		c2.5,0,5-0.7,7.2-2.1l0,0c2.3-1.5,3.6-3.4,3.6-5.7C219.5,169.4,219,168.4,218,167.7z M205.5,157.3c1-0.8,2.1-1.1,3.3-1.1
		c1.4,0,2.4,0.3,3.1,0.8c0.6,0.5,1,1.1,1,2.1c0,0.3-0.1,0.8-0.2,1.5c-1.5,0.7-3.3,1.1-5.5,1.1c-0.9,0-1.7-0.1-2.5-0.2
		C204.7,160.1,205,158.7,205.5,157.3z"/>
	<path d="M56.4,157.1c0-1.9-0.4-3.4-1.4-4.5c-1-1.1-2.5-1.5-4.2-1.5c-2.4,0-4.8,1.1-7.1,3.2c-1.6,1.4-2.9,3-3.9,4.6
		c0.1-1.9,0.2-4.1,0.4-6.8c0.4-4,0.5-6.7,0.5-8c0-1.4-0.4-2.6-1.3-3.5c-0.9-0.9-2-1.3-3.2-1.3c-1.2,0-2.4,0.2-3.5,0.6l-0.5,0.2
		l0.1,0.5c0.8,4.6,1.2,10.3,1.2,17.4c0,2.1-0.2,4.9-0.5,8.4c-0.4,3.5-0.5,5.8-0.5,7.1c0,1.3,0.3,2.5,1.2,3.2
		c0.8,0.8,1.9,1.1,3.3,1.1c1.3,0,2.5-0.2,3.6-0.6l0.5-0.2l-0.1-0.5c-0.6-3.9-0.9-6.3-1-7.3c0.3-1.9,1.4-4.4,3.4-7.4v0
		c1-1.5,1.9-2.6,2.8-3.4c0.9-0.7,1.6-1,2.2-1c0.7,0,1,0.2,1.3,0.4c0.2,0.3,0.4,0.7,0.4,1.5c0,0.6-0.2,2.5-0.6,5.5
		c-0.4,3.1-0.6,5.7-0.6,8c0,1.6,0.4,2.9,1.3,3.9c0.9,0.9,2.2,1.3,3.7,1.3c1.1,0,2.3-0.2,3.4-0.6l0.6-0.2l-0.2-0.6
		c-0.9-2.9-1.4-5.8-1.4-8.6L56.4,157.1L56.4,157.1z"/>
	<path d="M101.8,149.7l0.7,0.1c0.4,0.1,0.8,0.1,1.1,0.1c1.4,0,2.6-0.5,3.6-1.4c1-0.9,1.5-2.1,1.5-3.5c0-1.9-0.8-3.4-2.4-4.4
		c-1.5-0.9-3.3-1.4-5.5-1.4c-3.8,0-7,1.4-9.5,4.1c-2.4,2.5-3.7,5.6-4,9.2c-0.3,0-0.6,0-1,0c-0.9,0-1.7,0.3-2.4,1
		c-0.7,0.6-1.1,1.4-1.1,2.4c0,0.9,0.2,1.8,0.7,2.6l0.3,0.5l0.5-0.3c0.7-0.4,1.7-0.6,3-0.7c0.3,6.7,0.4,10.4,0.4,10.9
		c0,6.9-0.5,12.4-1.6,16.7l-0.2,0.6l0.6,0.2c1.4,0.4,2.6,0.6,3.6,0.6c1.3,0,2.5-0.3,3.3-1c0.8-0.7,1.2-1.7,1.2-2.9l-0.5-25.1
		c1.5,0.2,2.6,0.3,3.5,0.4c0.5,0.1,0.8,0.1,1.1,0.1c0.1,0,0.2,0,0.3,0l0.1,0l0,0h0h0c0,0,0,0,0,0c1.3,0,2.4-0.3,3.3-1
		c0.9-0.7,1.4-1.6,1.4-2.7c0-1-0.2-1.9-0.7-2.7l-0.2-0.4l-0.5,0.1c-3,0.7-5.5,1-7.7,1h-0.5c0-1.3,0.2-2.6,0.6-3.9
		c0.4-1.5,0.9-2.6,1.4-3.4c0.9-0.6,1.9-0.9,3-0.9c1.1,0,1.8,0.3,2.1,0.8l0,0c0.4,0.6,0.6,1.3,0.6,2.4c0,0.3,0,0.6-0.1,1L101.8,149.7
		z"/>
	<path d="M80.2,167.7c-0.9-0.6-2.1-1-3.3-1h-0.6v0.6c0,1.6-0.5,2.9-1.4,4c-0.9,1-2.1,1.6-3.7,1.6c-1.6,0-2.6-0.6-3.3-1.7
		c-0.6-1.1-1-2.7-1-4.6c1,0.1,1.9,0.1,2.8,0.1c3.3,0,6.1-0.6,8.5-1.9c2.4-1.4,3.7-3.4,3.7-6.1c0-2.6-0.8-4.7-2.6-6
		c-1.7-1.3-3.9-1.9-6.6-1.9c-4,0-7.2,1.5-9.6,4.4c-2.4,2.8-3.5,6.4-3.5,10.5c0,4.1,0.9,7.3,2.7,9.5l0,0c1.9,2.2,4.8,3.3,8.7,3.3
		c2.5,0,5-0.7,7.2-2.1l0,0c2.3-1.5,3.6-3.4,3.6-5.7C81.7,169.4,81.2,168.4,80.2,167.7z M67.7,157.3c1-0.8,2.1-1.1,3.3-1.1
		c1.4,0,2.4,0.3,3.1,0.8c0.6,0.5,1,1.1,1,2.1c0,0.3-0.1,0.8-0.2,1.5c-1.5,0.7-3.3,1.1-5.5,1.1c-0.9,0-1.7-0.1-2.5-0.2
		C67,160.1,67.2,158.7,67.7,157.3z"/>
	<path d="M27.8,163c-1.2-0.7-2.8-1-4.5-1h-0.6v0.6c0,3-0.4,5.3-1.3,7l0,0c-0.4,0.9-1,1.6-1.8,2.1c-0.8,0.5-1.8,0.7-3.1,0.7
		c-2.8,0-4.8-1.1-6.1-3.4c-1.3-2.4-2-5.3-2-8.9c0-2.1,0.3-4.3,0.8-6.5c0.5-2.2,1.2-3.9,2.1-5.2c1.5-1.1,3.1-1.6,4.8-1.6
		c1.8,0,3,0.6,3.9,1.7l0,0c0.9,1.2,1.4,2.7,1.4,4.7c0,0.6,0,1.1-0.1,1.6l-0.1,0.5l0.5,0.2c0.8,0.3,1.8,0.5,3,0.5
		c1.4,0,2.5-0.6,3.4-1.6c0.9-1.1,1.3-2.4,1.3-3.9c0-2.9-1.2-5.3-3.5-7.1c-2.3-1.8-4.9-2.7-7.9-2.7c-5.3,0-9.6,2-12.8,5.9
		c-3.1,3.9-4.7,8.5-4.7,14c0,5.4,1.2,9.7,3.8,13v0c2.6,3.3,6.3,4.9,11.1,4.9c3.7,0,7.1-1.1,10-3.3l0,0c3-2.3,4.5-5.1,4.5-8.6
		c0-0.8-0.2-1.5-0.5-2.1C29,163.8,28.4,163.3,27.8,163z"/>
</g>
</svg>
