<?xml version="1.0" encoding="utf-8"?>
<!-- Generator: Adobe Illustrator 24.0.0, SVG Export Plug-In . SVG Version: 6.00 Build 0)  -->
<svg version="1.1" id="Layer_1" xmlns="http://www.w3.org/2000/svg" xmlns:xlink="http://www.w3.org/1999/xlink" x="0px" y="0px"
	 viewBox="0 0 56 56" style="enable-background:new 0 0 56 56;" xml:space="preserve">
<g>
	<path d="M28,56C12.6,56,0,43.4,0,28S12.6,0,28,0s28,12.6,28,28S43.4,56,28,56z M28,2C13.7,2,2,13.7,2,28c0,14.3,11.7,26,26,26
		c14.3,0,26-11.7,26-26C54,13.7,42.3,2,28,2z"/>
</g>
<path d="M24,19L24,19c1.1,0,2,0.9,2,2v15c0,1.1-0.9,2-2,2l0,0c-1.1,0-2-0.9-2-2V21C22,19.9,22.9,19,24,19z"/>
<path d="M33,19L33,19c1.1,0,2,0.9,2,2v15c0,1.1-0.9,2-2,2l0,0c-1.1,0-2-0.9-2-2V21C31,19.9,31.9,19,33,19z"/>
</svg>
