<?xml version="1.0" encoding="utf-8"?>
<!-- Generator: Adobe Illustrator 24.0.0, SVG Export Plug-In . SVG Version: 6.00 Build 0)  -->
<svg version="1.1" id="Layer_1" xmlns="http://www.w3.org/2000/svg" xmlns:xlink="http://www.w3.org/1999/xlink" x="0px" y="0px"
	 viewBox="0 0 32 32" style="enable-background:new 0 0 32 32;" xml:space="preserve">
<style type="text/css">
	.st0{fill:#F2EEE3;}
	.st1{fill:#EFB3B3;}
	.st2{fill:#231F20;}
</style>
<path class="st0" d="M7.1,2L6.8,4.7L4,29.4l22.7-10.1l2.5-1.1C25.1,9,16.5,3,7.1,2z"/>
<path class="st1" d="M5.2,18.4c1.2,0.5,2,1.7,2,3.1c0,1.6-1.2,3-2.8,3.3"/>
<path class="st1" d="M15.6,12.4c0,1.9-1.5,3.4-3.4,3.4s-3.3-1.5-3.3-3.4s1.5-3.3,3.3-3.3S15.6,10.6,15.6,12.4z"/>
<path class="st2" d="M12.2,16.3c-2.1,0-3.9-1.7-3.9-3.9c0-2.1,1.7-3.8,3.9-3.8s3.9,1.7,3.9,3.8C16.1,14.6,14.4,16.3,12.2,16.3z
	 M12.2,9.6c-1.6,0-2.9,1.3-2.9,2.8c0,1.6,1.3,2.9,2.9,2.9s2.9-1.3,2.9-2.9C15.1,10.9,13.8,9.6,12.2,9.6z"/>
<path class="st1" d="M14.9,24.6c-1.2-2.2,0.4-5,2.9-5c1.5,0,2.7,0.9,3.2,2.3"/>
<path class="st2" d="M29.7,18C25.6,8.9,17,2.6,7.1,1.5c-0.3,0-0.5,0.2-0.6,0.4L6.3,4.7c0,0,0,0,0,0c0,0,0,0,0,0L4.7,18.3
	c0,0,0,0,0,0.1L4,24.6c0,0,0,0.1,0,0.1l-0.5,4.6c0,0.2,0.1,0.4,0.2,0.5c0.1,0.1,0.2,0.1,0.3,0.1c0.1,0,0.1,0,0.2,0l22.7-10.1
	c0,0,0,0,0,0l2.5-1.1C29.7,18.6,29.8,18.3,29.7,18z M5.6,19.2c0.7,0.5,1.1,1.4,1.1,2.3c0,1.1-0.7,2.1-1.7,2.6L5.6,19.2z M15.3,21.5
	c0.5-0.9,1.4-1.4,2.4-1.4c1.1,0,2,0.6,2.5,1.5l-5.2,2.3C14.9,23.1,14.9,22.2,15.3,21.5z M21.2,21.2c-0.6-1.3-2-2.1-3.4-2.1
	c-1.4,0-2.6,0.7-3.3,1.9c-0.6,1-0.7,2.2-0.3,3.3l-9.6,4.3L5,25.1c1.6-0.5,2.8-1.9,2.8-3.7c0-1.4-0.8-2.7-2-3.4L7.2,5.3
	c9,1,12.3,5.7,15.2,9.8c1.1,1.5,2.1,3,3.4,4.1L21.2,21.2z M26.8,18.8c-1.3-1.1-2.4-2.6-3.6-4.2c-2.9-4.1-6.5-9.1-15.9-10.2l0.2-1.8
	c9.2,1.2,17.1,7,21,15.4L26.8,18.8z"/>
</svg>
