<?xml version="1.0" encoding="utf-8"?>
<!-- Generator: Adobe Illustrator 24.0.0, SVG Export Plug-In . SVG Version: 6.00 Build 0)  -->
<svg version="1.1" id="Layer_1" xmlns="http://www.w3.org/2000/svg" xmlns:xlink="http://www.w3.org/1999/xlink" x="0px" y="0px"
	 viewBox="0 0 32 32" style="enable-background:new 0 0 32 32;" xml:space="preserve">
<style type="text/css">
	.st0{fill:#EFB3B3;}
	.st1{fill:#231F20;}
</style>
<path class="st0" d="M23.5,30.5H9.2L7,11.6h18.7L23.5,30.5z"/>
<g>
	<path class="st1" d="M15,8.5c0.1,0.2,0.3,0.3,0.5,0.3c0.1,0,0.1,0,0.2,0c0.3-0.1,0.4-0.4,0.3-0.6c-0.2-0.6,0.1-1.3,0.7-1.5
		c0.6-0.2,1.3,0.1,1.5,0.7c0.1,0.3,0.4,0.4,0.6,0.3c0.3-0.1,0.4-0.4,0.3-0.6c-0.4-1.1-1.6-1.8-2.8-1.4C15.3,6.1,14.6,7.3,15,8.5z"/>
	<path class="st1" d="M20.7,7.1c0.1,0,0.1,0,0.2,0c0.3-0.1,0.4-0.4,0.3-0.6C21,5.9,21.3,5.2,21.9,5c0.6-0.2,1.3,0.1,1.5,0.7
		C23.5,6,23.8,6.1,24.1,6c0.3-0.1,0.4-0.4,0.3-0.6C24,4.2,22.7,3.6,21.6,4c-1.1,0.4-1.8,1.6-1.4,2.8C20.3,7,20.5,7.1,20.7,7.1z"/>
	<path class="st1" d="M12.3,8.3c0.3,0,0.5-0.2,0.5-0.5s-0.2-0.5-0.5-0.5c-0.7,0-1.2-0.5-1.2-1.2s0.5-1.2,1.2-1.2s1.2,0.5,1.2,1.2
		c0,0.3,0.2,0.5,0.5,0.5s0.5-0.2,0.5-0.5c0-1.2-1-2.2-2.2-2.2s-2.2,1-2.2,2.2S11.1,8.3,12.3,8.3z"/>
	<path class="st1" d="M18.3,4.9c0.1,0,0.2,0,0.3-0.1c0.2-0.2,0.2-0.5,0-0.7c-0.2-0.2-0.3-0.5-0.3-0.9s0.2-0.6,0.4-0.8
		c0.2-0.2,0.2-0.5,0-0.7c-0.2-0.2-0.5-0.2-0.7,0c-0.4,0.4-0.7,0.9-0.7,1.5c0,0.6,0.2,1.1,0.6,1.6C18.1,4.8,18.2,4.9,18.3,4.9z"/>
	<path class="st1" d="M14,3.5c0.3-0.1,0.6,0,0.9,0.2c0.3,0.2,0.4,0.4,0.5,0.8c0,0.2,0.3,0.4,0.5,0.4c0,0,0.1,0,0.1,0
		c0.3-0.1,0.4-0.3,0.4-0.6c-0.1-0.6-0.4-1.1-0.9-1.4c-0.5-0.3-1.1-0.4-1.6-0.3c-0.3,0.1-0.4,0.3-0.4,0.6C13.5,3.4,13.7,3.6,14,3.5z"
		/>
	<path class="st1" d="M26.1,11.2c-0.1-0.1-0.2-0.2-0.4-0.2h-0.9c0,0,0.1-0.1,0.1-0.1c0.4-0.4,0.6-1,0.6-1.6c0-0.6-0.3-1.1-0.7-1.5
		c-0.4-0.4-1-0.6-1.6-0.6c-0.3,0-0.5,0.2-0.5,0.5c0,0.3,0.2,0.5,0.5,0.5c0.3,0,0.6,0.1,0.8,0.3c0.2,0.2,0.4,0.5,0.4,0.8
		c0,0.3-0.1,0.6-0.3,0.8c-0.2,0.2-0.5,0.4-0.8,0.4c-0.2,0-0.4,0.2-0.5,0.4h-3.5c-0.2-0.5-0.1-1.1,0.3-1.5c0.3-0.2,0.6-0.3,0.9-0.2
		c0.3,0,0.6,0.2,0.8,0.5c0.2,0.2,0.5,0.3,0.7,0.1c0.2-0.2,0.3-0.5,0.1-0.7c-0.4-0.5-0.9-0.8-1.4-0.9c-0.6-0.1-1.2,0.1-1.6,0.4
		c-0.7,0.5-1,1.4-0.8,2.3h-2c0.4-0.4,0.7-1,0.7-1.6C17,9.2,16.8,9,16.5,9S16,9.2,16,9.5c0,0.7-0.5,1.2-1.2,1.2s-1.2-0.5-1.2-1.2
		c0-0.3-0.2-0.5-0.5-0.5s-0.5,0.2-0.5,0.5c0,0.6,0.3,1.2,0.7,1.6h-2.4c0.4-0.4,0.7-1,0.7-1.6c0-0.3-0.2-0.5-0.5-0.5
		s-0.5,0.2-0.5,0.5c0,0.7-0.5,1.2-1.2,1.2c-0.7,0-1.2-0.5-1.2-1.2s0.5-1.2,1.2-1.2c0.3,0,0.5-0.2,0.5-0.5S9.7,7.3,9.4,7.3
		c-1.2,0-2.2,1-2.2,2.2c0,0.6,0.3,1.2,0.7,1.6H7c-0.1,0-0.3,0.1-0.4,0.2c-0.1,0.1-0.1,0.2-0.1,0.4l2.2,18.9c0,0.3,0.2,0.4,0.5,0.4
		h14.4c0.3,0,0.5-0.2,0.5-0.4l2.2-18.9C26.2,11.5,26.2,11.4,26.1,11.2z M23.1,30h-2.6l0.9-15.6c0-0.3-0.2-0.5-0.5-0.5
		c-0.3,0-0.5,0.2-0.5,0.5L19.4,30h-2.6V14.3c0-0.3-0.2-0.5-0.5-0.5s-0.5,0.2-0.5,0.5V30h-2.6l-0.9-15.7c0-0.3-0.2-0.5-0.5-0.5
		c-0.3,0-0.5,0.3-0.5,0.5L12.3,30H9.6L7.6,12.1h17.6L23.1,30z"/>
</g>
</svg>
