<svg width="40" height="40" viewBox="0 0 40 40" fill="none" xmlns="http://www.w3.org/2000/svg">
<path d="M31.217 17.7771C30.9533 18.0577 30.6808 18.3559 30.3995 18.6716C30.1182 18.9873 29.7621 19.4083 29.3313 19.9345C28.9005 20.4607 28.5531 20.9871 28.289 21.5135C28.025 22.0399 27.8928 22.4963 27.8923 22.8826C27.8917 23.3566 27.0704 23.7551 25.4283 24.0779C23.7862 24.4008 21.7975 24.5608 19.4623 24.5579C17.127 24.5551 15.1387 24.3903 13.4974 24.0635C11.8561 23.7366 11.0358 23.3362 11.0363 22.8621C11.037 22.3529 10.8007 21.7161 10.3275 20.9518C9.8544 20.1874 9.4118 19.5723 8.99974 19.1065C8.58768 18.6408 8.17998 18.2057 7.77663 17.8014C6.58407 16.6411 5.98879 15.2357 5.9908 13.5852C5.99278 11.9523 6.5695 10.5615 7.72097 9.4128C8.87243 8.26412 10.2646 7.69078 11.8975 7.69276C12.3014 7.69325 12.7227 7.73765 13.1616 7.82598C12.8798 8.54553 12.7383 9.34426 12.7373 10.2222C12.735 12.1009 13.3125 13.6643 14.4699 14.9124C14.4359 13.9642 14.4196 12.9633 14.4208 11.9098C14.4228 10.2769 14.9161 8.886 15.9008 7.73712C16.8855 6.58824 18.0801 6.01466 19.4848 6.01636C20.8894 6.01807 22.0827 6.59455 23.0646 7.74581C24.0465 8.89708 24.5364 10.2892 24.5344 11.9221C24.5331 12.9931 24.5143 13.994 24.4781 14.9245C25.6385 13.6793 26.2198 12.1173 26.2221 10.2385C26.2231 9.36062 26.0836 8.56155 25.8036 7.84132C26.2426 7.75406 26.6641 7.71067 27.0679 7.71117C28.7008 7.71315 30.0916 8.28987 31.2403 9.44133C32.389 10.5928 32.9623 11.985 32.9604 13.6179C32.9584 15.2508 32.3773 16.6372 31.217 17.7771ZM19.4471 26.2435C21.7735 26.2463 23.7622 26.082 25.4131 25.7503C27.064 25.4187 27.8897 25.0247 27.8903 24.5682L27.8821 31.3106C27.8815 31.7671 27.0558 32.1611 25.4049 32.4927C23.754 32.8243 21.7654 32.9887 19.4389 32.9859C17.1124 32.9831 15.1285 32.8139 13.4872 32.4783C11.8459 32.1427 11.0256 31.7466 11.0261 31.2901L11.0343 24.5477C11.0337 25.0218 11.8541 25.4222 13.4954 25.7491C15.1367 26.0759 17.1206 26.2407 19.4471 26.2435Z" fill="#FBBC04"/>
</svg>
