<?xml version="1.0" encoding="utf-8"?>
<!-- Generator: Adobe Illustrator 24.0.0, SVG Export Plug-In . SVG Version: 6.00 Build 0)  -->
<svg version="1.1" id="Layer_1" xmlns="http://www.w3.org/2000/svg" xmlns:xlink="http://www.w3.org/1999/xlink" x="0px" y="0px"
	 viewBox="0 0 32 32" style="enable-background:new 0 0 32 32;" xml:space="preserve">
<style type="text/css">
	.st0{fill:#92BB7A;}
	.st1{fill:#D2E7E4;}
	.st2{fill:#231F20;}
	.st3{fill:#61BAAC;}
	.st4{fill:none;stroke:#231F20;stroke-linecap:round;stroke-linejoin:round;}
	.st5{fill:#A9E186;}
</style>
<g>
	<path class="st0" d="M22.3,14.2c0,0,4.7-4.8,3.1-5.8s-3.1-1.3-3.4-0.9c0,0,3.5-4.8,1.3-5.9c-2.2-1.1-7.4,3.1-7.4,3.1
		s-2.2-3.7-3.2-2.6c0,0-3.5,8.5-3.3,11.8L22.3,14.2z"/>
</g>
<path class="st1" d="M30.4,17.3H1.5C2,22.5,6,26.8,11.3,28.9v1.4h9.2v-1.4C25.8,26.8,29.9,22.5,30.4,17.3z"/>
<path class="st2" d="M20.6,30.7h-9.2c-0.3,0-0.5-0.2-0.5-0.5v-1C5.3,27,1.4,22.3,1,17.4c0-0.1,0-0.3,0.1-0.4
	c0.1-0.1,0.2-0.2,0.4-0.2h28.9c0.1,0,0.3,0.1,0.4,0.2c0.1,0.1,0.1,0.2,0.1,0.4c-0.4,5-4.3,9.6-9.8,11.8v1
	C21.1,30.5,20.8,30.7,20.6,30.7z M11.8,29.7h8.2v-0.9c0-0.2,0.1-0.4,0.3-0.5c5.1-2,8.8-6.1,9.4-10.6H2.1c0.6,4.5,4.3,8.6,9.4,10.6
	c0.2,0.1,0.3,0.3,0.3,0.5V29.7z"/>
<path class="st3" d="M3.9,15.4c0,0-0.7-0.3,0.2-1.5c0,0-2.5-2.9,0.6-3.6c0,0-0.4-6.7,4.2-3.9c0,0,3.6-1.7,3.6,2.4
	c0,0,3.5,0.4,1.6,2.8c-1.4,1.7-0.2,2.3,0.5,2.6s1.3,0.4,1.5,1.2"/>
<path class="st2" d="M11.4,10.9c0-0.3-0.1-0.5-0.4-0.6c-0.3,0-0.5,0.1-0.6,0.4c-0.2,1.3-0.8,2.8-1.1,3.7c-1.2-1.5-1.7-3.1-1.4-4.9
	C7.9,9.3,7.7,9,7.4,9c-0.3,0-0.5,0.2-0.6,0.4c-0.1,1.1,0,2.1,0.3,3.1L5.3,12C5,12,4.8,12.1,4.7,12.4C4.6,12.6,4.8,12.9,5,13l2.5,0.7
	c0.4,0.7,0.8,1.4,1.5,2c0,0,0.1,0,0.1,0.1c0,0,0.1,0,0.1,0.1c0,0,0,0,0,0c0.1,0,0.1,0,0.2,0c0,0,0,0,0,0s0,0,0,0c0,0,0,0,0,0
	c0.1,0,0.2,0,0.2-0.1c0,0,0,0,0.1,0c0,0,0,0,0.1,0c0,0,0.1-0.1,0.1-0.2c0,0,0,0,0,0C9.9,15.4,11,12.9,11.4,10.9z"/>
<path class="st4" d="M24.3,10.3c0,0,2.6-0.9,1-1.9s-3.1-1.3-3.4-0.8c0,0,3.5-4.8,1.3-5.9c-2.2-1.1-7.4,3.1-7.4,3.1s-2.2-3.7-3.2-2.6
	c0,0-1.4,0.7-1.1,4"/>
<path class="st2" d="M20.3,8.6C19,8.3,18,8.9,17.4,9.4c-0.2-0.8-0.2-1.6,0.4-2c0.7-0.5,1.2-0.8,1.6-1c0.8-0.5,1.5-0.9,1.3-1.8
	c-0.1-0.3-0.3-0.4-0.6-0.3c-0.3,0.1-0.4,0.3-0.3,0.6C19.8,5,19.8,5,19,5.5c-0.4,0.2-1,0.6-1.7,1.1c-0.4,0.3-0.6,0.6-0.7,0.9
	l-2.2-1.2c-0.2-0.1-0.5,0-0.7,0.2s0,0.5,0.2,0.7l2.4,1.3c0,1.8,1.3,3.8,1.4,3.9c0.1,0.1,0.3,0.2,0.4,0.2c0.1,0,0.2,0,0.3-0.1
	c0.2-0.2,0.3-0.5,0.1-0.7c0,0-0.4-0.6-0.8-1.4c0.3-0.4,1.2-1.1,2.4-0.8c0.3,0.1,0.5-0.1,0.6-0.4C20.8,8.9,20.6,8.6,20.3,8.6z"/>
<path class="st5" d="M15.5,15.3c0,0-0.3-6.3,5-1.6c0,0,2.2-6.9,6.1-1.4c0,0,1.6-1.2,1.7,0.6s-0.7,2.7-0.7,2.7L15.5,15.3z"/>
<g>
	<path class="st2" d="M27.3,15.8c-0.2,0-0.3-0.1-0.4-0.2c-0.1-0.2-0.1-0.5,0.2-0.7c0,0,0.8-0.5,0.7-2c0-0.4-0.1-0.5-0.1-0.5
		c-0.1,0-0.5,0.1-0.7,0.3c-0.1,0.1-0.3,0.1-0.4,0.1c-0.1,0-0.3-0.1-0.3-0.2c-0.7-0.9-1.7-2-2.7-1.9c-1.3,0.2-2.2,2.3-2.5,3.1
		c-0.1,0.2-0.2,0.3-0.3,0.3c-0.2,0-0.3,0-0.5-0.1c-2.2-1.9-3.1-1.9-3.5-1.7C16,12.7,15.9,14,16,14.5c0,0.3-0.2,0.5-0.5,0.5
		c-0.3,0-0.5-0.2-0.5-0.5c0-0.2-0.1-2.4,1.3-3c1-0.5,2.3,0,4,1.4c0.4-1,1.5-2.9,3-3.1c1.1-0.2,2.2,0.5,3.4,1.9
		c0.4-0.2,0.9-0.4,1.3-0.1c0.4,0.2,0.7,0.7,0.7,1.4c0.1,2.1-1.2,2.9-1.2,2.9C27.5,15.8,27.4,15.8,27.3,15.8z"/>
</g>
<path class="st2" d="M25.8,13.3c-0.2-0.2-0.5-0.1-0.7,0.1c-0.1,0.2-0.7,0.6-1.4,1.1c-0.1-0.6-0.1-1.4,0.3-1.6
	c0.3-0.1,0.4-0.4,0.3-0.7c-0.1-0.3-0.4-0.4-0.7-0.3c-1.6,0.7-0.8,3.2-0.7,3.5c0,0,0,0,0,0c0,0,0,0.1,0,0.1c0,0,0.1,0.1,0.1,0.1
	c0,0,0,0,0.1,0.1c0.1,0.1,0.2,0.1,0.3,0.1c0,0,0,0,0,0s0,0,0,0c0,0,0.1,0,0.2,0c0,0,0.1,0,0.1-0.1c0,0,0,0,0,0
	c0.4-0.3,1.9-1.3,2.3-1.8C26.1,13.8,26.1,13.5,25.8,13.3z"/>
<g>
	<path class="st2" d="M3.9,15.9c-0.1,0-0.1,0-0.2,0c-0.2-0.1-0.4-0.3-0.5-0.6c-0.1-0.4,0-0.8,0.3-1.4c-0.4-0.5-1.1-1.7-0.7-2.7
		c0.2-0.6,0.7-1,1.5-1.3c0-1,0.1-3.5,1.6-4.4C6.6,5,7.7,5.1,9,5.8c0.5-0.2,1.8-0.6,2.8,0.1c0.7,0.5,1.1,1.3,1.2,2.5
		c0.6,0.1,1.7,0.5,2,1.4c0.3,0.6,0.1,1.4-0.6,2.2c-0.4,0.5-0.6,0.9-0.5,1.2c0.1,0.3,0.5,0.5,0.8,0.6c0.7,0.2,1.5,0.5,1.8,1.6
		c0.1,0.3-0.1,0.5-0.3,0.6c-0.3,0.1-0.5-0.1-0.6-0.3c-0.1-0.5-0.4-0.6-1.1-0.9c-0.8-0.2-1.3-0.7-1.5-1.2c-0.2-0.6,0-1.3,0.7-2.1
		c0.3-0.3,0.6-0.8,0.4-1.2c-0.2-0.5-1.2-0.8-1.7-0.8c-0.2,0-0.4-0.2-0.4-0.5c0-1.1-0.3-1.8-0.8-2.1c-0.7-0.4-1.8-0.1-2.1,0.1
		C9,6.9,8.8,6.9,8.7,6.8C7.6,6.2,6.9,6,6.3,6.4c-1.1,0.6-1.2,3-1.1,3.9c0,0.2-0.1,0.5-0.4,0.5c-0.6,0.2-1,0.4-1.1,0.7
		c-0.2,0.7,0.5,1.7,0.8,2c0.1,0.2,0.2,0.4,0,0.6C4.1,14.7,4.1,15,4.1,15c0.3,0.1,0.3,0.4,0.2,0.6C4.3,15.8,4.1,15.9,3.9,15.9z"/>
</g>
</svg>
