<?xml version="1.0" encoding="utf-8"?>
<!-- Generator: Adobe Illustrator 24.0.0, SVG Export Plug-In . SVG Version: 6.00 Build 0)  -->
<svg version="1.1" id="Layer_1" xmlns="http://www.w3.org/2000/svg" xmlns:xlink="http://www.w3.org/1999/xlink" x="0px" y="0px"
	 viewBox="0 0 30 30" style="enable-background:new 0 0 30 30;" xml:space="preserve">
<path d="M25.2,22.7l-5.2-5.2c0.8-1.3,1.3-2.8,1.3-4.5c0-4.6-3.8-8.4-8.4-8.4S4.7,8.4,4.7,13c0,4.6,3.8,8.4,8.4,8.4
	c1.7,0,3.2-0.5,4.5-1.3l5.2,5.2c0.3,0.3,0.8,0.5,1.3,0.5c0.5,0,0.9-0.2,1.3-0.5C25.9,24.5,25.9,23.4,25.2,22.7z M6.2,13
	c0-3.8,3.1-6.9,6.9-6.9s6.9,3.1,6.9,6.9c0,3.8-3.1,6.9-6.9,6.9S6.2,16.8,6.2,13z M24.2,24.2c-0.1,0.1-0.3,0.1-0.4,0l-5-5
	c0.1-0.1,0.3-0.3,0.4-0.4l5,5C24.3,23.9,24.3,24,24.2,24.2z"/>
</svg>
