<?xml version="1.0" encoding="utf-8"?>
<!-- Generator: Adobe Illustrator 24.0.0, SVG Export Plug-In . SVG Version: 6.00 Build 0)  -->
<svg version="1.1" id="Layer_1" xmlns="http://www.w3.org/2000/svg" xmlns:xlink="http://www.w3.org/1999/xlink" x="0px" y="0px"
	 viewBox="0 0 30 30" style="enable-background:new 0 0 30 30;" xml:space="preserve">
<style type="text/css">
	.st0{fill:#A9A9A9;}
</style>
<g>
	<path class="st0" d="M15.2,19.2c-2.3,0-4.2-1.9-4.2-4.2s1.9-4.2,4.2-4.2c1.1,0,2.2,0.4,3,1.2c0.8,0.8,1.2,1.8,1.2,3
		C19.4,17.3,17.5,19.2,15.2,19.2z M15.2,12.4C15.2,12.4,15.2,12.4,15.2,12.4c-1.4,0-2.6,1.2-2.6,2.6c0,1.4,1.2,2.6,2.6,2.6
		c1.4,0,2.6-1.2,2.6-2.6c0-0.7-0.3-1.4-0.8-1.8C16.5,12.6,15.9,12.4,15.2,12.4z"/>
</g>
<g>
	<path class="st0" d="M15.2,24.8c-0.4,0-0.9,0-1.4-0.1c-0.3,0-0.6-0.3-0.6-0.6l-0.3-2c-0.4-0.1-0.9-0.3-1.3-0.5l-1.6,1.2
		c-0.3,0.2-0.6,0.2-0.8,0c-0.7-0.5-1.4-1.2-1.9-1.9c-0.2-0.3-0.2-0.6,0-0.8l1.2-1.6c-0.2-0.4-0.4-0.8-0.5-1.3l-2-0.3
		c-0.3,0-0.6-0.3-0.6-0.6c-0.1-0.9-0.1-1.8,0-2.7c0-0.3,0.3-0.6,0.6-0.6l2-0.3c0.1-0.4,0.3-0.9,0.5-1.3L7.3,9.9
		C7.1,9.6,7.1,9.3,7.3,9c0.5-0.7,1.2-1.4,1.9-1.9c0.3-0.2,0.6-0.2,0.8,0l1.6,1.2c0.4-0.2,0.8-0.4,1.3-0.5l0.3-2
		c0-0.3,0.3-0.6,0.6-0.6c0.9-0.1,1.8-0.1,2.7,0c0.3,0,0.6,0.3,0.6,0.6l0.3,2c0.4,0.1,0.9,0.3,1.3,0.5l1.6-1.2c0.3-0.2,0.6-0.2,0.9,0
		C21.9,7.6,22.5,8.3,23,9c0.2,0.3,0.2,0.6,0,0.8l-1.2,1.6c0.2,0.4,0.4,0.8,0.5,1.3l2,0.3c0.3,0,0.6,0.3,0.6,0.6
		c0.1,0.9,0.1,1.8,0,2.7c0,0.3-0.3,0.6-0.6,0.6l-2,0.3c-0.1,0.4-0.3,0.9-0.5,1.3l1.2,1.6c0.2,0.2,0.2,0.6,0,0.8
		c-0.5,0.7-1.2,1.4-1.9,1.9c-0.3,0.2-0.6,0.2-0.8,0l-1.6-1.2c-0.4,0.2-0.8,0.4-1.3,0.5l-0.3,2c0,0.3-0.3,0.6-0.6,0.6
		C16.1,24.8,15.6,24.8,15.2,24.8z M14.5,23.4c0.4,0,0.9,0,1.3,0l0.3-1.9c0-0.3,0.2-0.5,0.5-0.6c0.6-0.2,1.2-0.4,1.8-0.7
		c0.2-0.2,0.6-0.1,0.8,0l1.5,1.2c0.3-0.3,0.6-0.6,0.9-0.9l-1.2-1.5c-0.2-0.2-0.2-0.5,0-0.8c0.3-0.6,0.6-1.1,0.7-1.8
		c0.1-0.3,0.3-0.5,0.6-0.5l1.9-0.3c0-0.4,0-0.9,0-1.3l-1.9-0.3c-0.3,0-0.5-0.2-0.6-0.5c-0.2-0.6-0.4-1.2-0.7-1.7
		c-0.2-0.2-0.1-0.6,0-0.8l1.2-1.5c-0.3-0.3-0.6-0.6-0.9-0.9l-1.5,1.2c-0.2,0.2-0.5,0.2-0.8,0c-0.5-0.3-1.1-0.6-1.7-0.7
		c-0.3-0.1-0.5-0.3-0.5-0.6l-0.3-1.9c-0.4,0-0.9,0-1.3,0l-0.3,1.9c0,0.3-0.3,0.5-0.5,0.6c-0.6,0.1-1.2,0.4-1.7,0.7
		c-0.2,0.2-0.6,0.1-0.8,0L9.7,8.5C9.3,8.8,9,9.1,8.7,9.4L9.9,11c0.2,0.2,0.2,0.5,0,0.8c-0.3,0.5-0.6,1.1-0.7,1.8
		c-0.1,0.3-0.3,0.5-0.6,0.5l-1.9,0.3c0,0.4,0,0.9,0,1.3l1.9,0.3c0.3,0,0.5,0.2,0.6,0.5c0.2,0.6,0.4,1.2,0.7,1.8
		c0.2,0.2,0.1,0.6,0,0.8l-1.2,1.5c0.3,0.3,0.6,0.6,0.9,0.9l1.5-1.2c0.2-0.2,0.5-0.2,0.8,0c0.5,0.3,1.1,0.6,1.7,0.7
		c0.3,0.1,0.5,0.3,0.5,0.6L14.5,23.4z"/>
</g>
</svg>
