<?xml version="1.0" encoding="utf-8"?>
<!-- Generator: Adobe Illustrator 24.0.0, SVG Export Plug-In . SVG Version: 6.00 Build 0)  -->
<svg version="1.1" id="Layer_1" xmlns="http://www.w3.org/2000/svg" xmlns:xlink="http://www.w3.org/1999/xlink" x="0px" y="0px"
	 viewBox="0 0 30 30" style="enable-background:new 0 0 30 30;" xml:space="preserve">
<path d="M24.7,5.7c0-0.1-0.1-0.2-0.2-0.2c0,0,0,0,0,0c0,0,0,0,0,0c-0.1-0.1-0.1-0.1-0.2-0.2c-0.1,0-0.2-0.1-0.3-0.1c0,0,0,0,0,0h-5
	c-0.4,0-0.8,0.4-0.8,0.8s0.4,0.8,0.8,0.8h3.1l-7.6,7.6c-0.3,0.3-0.3,0.8,0,1.1c0.2,0.2,0.4,0.2,0.6,0.2s0.4-0.1,0.6-0.2l7.6-7.6V11
	c0,0.4,0.4,0.8,0.8,0.8s0.8-0.4,0.8-0.8V6C24.8,5.9,24.8,5.8,24.7,5.7z"/>
<g>
	<path d="M21,24.8H8c-2.1,0-3.8-1.7-3.8-3.8V9c0-2.1,1.7-3.8,3.8-3.8h5.4c0.4,0,0.8,0.4,0.8,0.8s-0.4,0.8-0.8,0.8H8
		c-1.2,0-2.2,1-2.2,2.2v12c0,1.2,1,2.2,2.2,2.2h13c1.2,0,2.2-1,2.2-2.2v-4.6c0-0.4,0.4-0.8,0.8-0.8s0.8,0.4,0.8,0.8V21
		C24.8,23.1,23.1,24.8,21,24.8z"/>
</g>
</svg>
