<?xml version="1.0" encoding="utf-8"?>
<!-- Generator: Adobe Illustrator 24.0.0, SVG Export Plug-In . SVG Version: 6.00 Build 0)  -->
<svg version="1.1" id="Layer_1" xmlns="http://www.w3.org/2000/svg" xmlns:xlink="http://www.w3.org/1999/xlink" x="0px" y="0px"
	 viewBox="0 0 30 30" style="enable-background:new 0 0 30 30;" xml:space="preserve">
<style type="text/css">
	.st0{fill:#A9A9A9;}
</style>
<g>
	<path class="st0" d="M15.2,18.6c-2.1,0-3.8-1.8-3.8-3.9s1.7-3.9,3.8-3.9c2.1,0,3.8,1.8,3.8,3.9C19,16.9,17.3,18.6,15.2,18.6z
		 M15.2,11.8c-1.5,0-2.8,1.3-2.8,2.9s1.2,2.9,2.8,2.9s2.8-1.3,2.8-2.9C18,13.1,16.7,11.8,15.2,11.8z"/>
</g>
<g>
	<path class="st0" d="M15.2,16.6c-1,0-1.8-0.9-1.8-1.9s0.8-1.9,1.8-1.9c0.5,0,0.9,0.2,1.3,0.5c0.4,0.4,0.6,0.9,0.6,1.4
		C17.1,15.8,16.2,16.6,15.2,16.6z M15.2,13.8C15.2,13.8,15.2,13.8,15.2,13.8c-0.5,0-0.9,0.4-0.9,0.9s0.4,0.9,0.8,0.9
		s0.8-0.4,0.8-0.9c0-0.3-0.1-0.5-0.3-0.7C15.6,13.9,15.4,13.8,15.2,13.8z"/>
</g>
<g>
	<path class="st0" d="M15.2,20.9c-4.8,0-8.7-2.8-8.7-6.2c0-3.4,3.9-6.2,8.7-6.2c4.8,0,8.7,2.8,8.7,6.2C23.9,18.1,20,20.9,15.2,20.9z
		 M15.2,9.5c-4.3,0-7.7,2.3-7.7,5.2s3.5,5.2,7.7,5.2s7.7-2.3,7.7-5.2S19.5,9.5,15.2,9.5z"/>
</g>
</svg>
