<svg width="15" height="16" viewBox="0 0 15 16" fill="none" xmlns="http://www.w3.org/2000/svg">
<path d="M14.9604 5.88472C14.9132 5.74587 14.8264 5.62386 14.7108 5.53376C14.5951 5.44366 14.4555 5.38942 14.3094 5.37772L10.0336 5.03796L8.18332 0.942191C8.12439 0.810274 8.02855 0.69823 7.90735 0.619582C7.78615 0.540934 7.64479 0.499042 7.50031 0.498963C7.35583 0.498883 7.21441 0.54062 7.09313 0.619135C6.97185 0.69765 6.87588 0.809589 6.81681 0.941441L4.96655 5.03796L0.690774 5.37772C0.547114 5.3891 0.409776 5.44163 0.295188 5.52902C0.1806 5.61641 0.093615 5.73496 0.0446398 5.87049C-0.00433531 6.00602 -0.013227 6.1528 0.0190285 6.29325C0.0512841 6.4337 0.123321 6.56189 0.226521 6.66247L3.38629 9.74274L2.26878 14.5818C2.23485 14.7282 2.24573 14.8815 2.3 15.0218C2.35427 15.162 2.44943 15.2826 2.57314 15.3681C2.69684 15.4536 2.84338 15.4999 2.99373 15.501C3.14407 15.5022 3.2913 15.4581 3.41629 15.3745L7.50006 12.652L11.5838 15.3745C11.7116 15.4593 11.8623 15.503 12.0156 15.4997C12.1689 15.4963 12.3175 15.4461 12.4414 15.3557C12.5653 15.2654 12.6586 15.1393 12.7087 14.9943C12.7588 14.8494 12.7633 14.6926 12.7216 14.545L11.3498 9.74499L14.7519 6.68347C14.9746 6.48247 15.0564 6.16897 14.9604 5.88472Z" fill="#FBBC04"/>
</svg>
