<?xml version="1.0" encoding="utf-8"?>
<!-- Generator: Adobe Illustrator 24.0.0, SVG Export Plug-In . SVG Version: 6.00 Build 0)  -->
<svg version="1.1" id="Layer_1" xmlns="http://www.w3.org/2000/svg" xmlns:xlink="http://www.w3.org/1999/xlink" x="0px" y="0px"
	 viewBox="0 0 30 30" style="enable-background:new 0 0 30 30;" xml:space="preserve">
<style type="text/css">
	.st0{fill:#F8EFD5;}
	.st1{fill:#F5F5F5;}
</style>
<path class="st0" d="M20.3,9.1l2.9-2.4c0.7-0.5,0.8-1.6,0.3-2.3c-0.5-0.7-1.5-0.9-2.2-0.3l-0.9,0.7" fill="#000"/>
<path class="st0" d="M20.3,14.1l4.3-3.5c0.7-0.5,0.8-1.6,0.3-2.3c-0.5-0.7-1.5-0.9-2.2-0.4l-2.4,1.8" fill="#000"/>
<path class="st0" d="M20.3,22.3c1.9-1.1,3.6-2.4,3.6-2.4c0.8-0.6,1.4-1.2,1.2-2c-0.2-0.9-1.1-1.4-2-1.2l1.9-1.2
	c0.9-0.6,1.1-1.5,0.7-2.3c-0.5-0.8-1.4-1.1-2.2-0.7l-3.2,2.1" fill="#000"/>
<path d="M26,13c-0.5-0.9-1.4-1.3-2.4-1.1l1.2-1c0.9-0.7,1.1-2,0.4-3c-0.4-0.6-1.1-0.9-1.8-0.9c0.4-0.3,0.6-0.7,0.7-1.3
	c0.1-0.6-0.1-1.2-0.4-1.7c-0.7-0.9-2-1.1-3-0.4L20,4.4c-0.2,0.2-0.2,0.5-0.1,0.7c0.2,0.2,0.5,0.2,0.7,0.1l0.9-0.7
	c0.5-0.4,1.2-0.2,1.5,0.2c0.2,0.3,0.3,0.6,0.2,1c0,0.3-0.2,0.5-0.4,0.7L20,8.8c-0.2,0.2-0.2,0.4-0.1,0.6c-0.1,0.2-0.1,0.4,0,0.6
	c0.2,0.2,0.5,0.3,0.7,0.1L23,8.3c0.5-0.3,1.2-0.2,1.5,0.3c0.4,0.5,0.3,1.3-0.2,1.7L20,13.7c-0.2,0.2-0.2,0.5-0.1,0.7
	c-0.1,0.2-0.1,0.4,0,0.6c0.2,0.2,0.5,0.3,0.7,0.1l3.1-2c0.6-0.3,1.2-0.1,1.5,0.5c0.3,0.6,0.1,1.2-0.5,1.6l-1.9,1.2c0,0,0,0,0,0
	L20,18.1c-0.2,0.1-0.3,0.5-0.2,0.7c0.1,0.1,0.3,0.2,0.4,0.2c0.1,0,0.2,0,0.3-0.1l2.7-1.7c0.6-0.1,1.2,0.2,1.3,0.8
	c0.1,0.5-0.2,0.9-1,1.5c0,0-1.7,1.3-3.5,2.3c-0.2,0.1-0.3,0.4-0.2,0.7c0.1,0.2,0.3,0.3,0.4,0.3c0.1,0,0.2,0,0.2-0.1
	c1.9-1.1,3.5-2.3,3.6-2.4c0.8-0.6,1.6-1.4,1.4-2.6c-0.1-0.6-0.5-1.1-1-1.3l0.8-0.5C26.3,15.2,26.6,14.1,26,13z" fill="#000"/>
<path class="st0" d="M9.5,14.3c0,0-0.8-9.2-4-7.9c-1.7,0.7,0.7,7.8-1,12.1c-1.3,3.2-0.2,8.1,5.5,8.8c1.6,0.2,7.7-3,7.7-3" fill="#000"/>
<path class="st1" d="M18.5,3h-7.4c-0.9,0-1.7,0.8-1.7,1.8v17.7c0,1,0.8,1.8,1.7,1.8h7.4c0.9,0,1.7-0.8,1.7-1.8V4.8
	C20.2,3.8,19.4,3,18.5,3z" fill="#000"/>
<path d="M18.5,2.5h-7.4C10,2.5,9,3.5,9,4.8v4.3C8.5,7.8,7.9,6.6,7.1,6C6.5,5.7,5.9,5.7,5.3,5.9c-1.2,0.5-1,2.4-0.8,5
	c0.2,2.4,0.4,5.3-0.4,7.4c-0.8,2-0.6,4.4,0.4,6.2c0.7,1.3,2.3,2.9,5.5,3.3c0.1,0,0.1,0,0.2,0c1.8,0,6.5-2.4,7.7-3.1h0.7
	c1.2,0,2.2-1,2.2-2.3V4.8C20.7,3.5,19.7,2.5,18.5,2.5z M10,26.8c-2.2-0.3-3.8-1.3-4.7-2.8c-0.9-1.5-1-3.6-0.3-5.3
	c0.9-2.3,0.7-5.4,0.5-7.9C5.3,9.2,5.2,7,5.6,6.8C6,6.7,6.3,6.7,6.5,6.9C8,7.8,8.8,12.4,9,14.2v8.3c0,1.2,1,2.3,2.2,2.3h4.5
	C13.4,25.8,10.8,26.9,10,26.8z M19.7,22.5c0,0.7-0.6,1.3-1.2,1.3h-7.4c-0.7,0-1.2-0.6-1.2-1.3v-1.1h9.8V22.5z M19.7,20.3H10v-6.1
	c0,0,0,0,0-0.1c0,0,0,0,0-0.1V6.9h9.8V20.3z M19.7,5.9H10V4.8c0-0.7,0.5-1.3,1.2-1.3h7.4c0.6,0,1.2,0.6,1.2,1.3V5.9z" fill="#000"/>
<g>
	<path d="M12.5,11.4h-1v-1.1c0-0.4,0.2-0.9,0.5-1.2c0.3-0.4,0.8-0.6,1.4-0.6h1.1v1h-1.1c-0.2,0-0.5,0.1-0.6,0.3
		c-0.1,0.1-0.2,0.3-0.2,0.5V11.4z" fill="#000"/>
</g>
<g>
	<path d="M16.7,18.5h-1.1v-1h1.1c0.2,0,0.5-0.1,0.6-0.3c0.1-0.1,0.2-0.3,0.2-0.5v-1.1h1v1.1c0,0.4-0.2,0.9-0.5,1.2
		C17.7,18.3,17.2,18.5,16.7,18.5z" fill="#000"/>
</g>
<g>
	<path d="M14.4,18.5h-1.1c-0.4,0-0.9-0.2-1.2-0.5c-0.4-0.3-0.6-0.8-0.6-1.4v-1.1h1v1.1c0,0.2,0.1,0.5,0.3,0.6
		c0.1,0.1,0.3,0.2,0.5,0.2h1.1V18.5z" fill="#000"/>
</g>
<g>
	<path d="M18.5,11.4h-1v-1.1c0-0.2-0.1-0.5-0.3-0.6c-0.1-0.1-0.3-0.2-0.5-0.2h-1.1v-1h1.1c0.4,0,0.9,0.2,1.2,0.5
		c0.4,0.3,0.6,0.8,0.6,1.4V11.4z" fill="#000"/>
</g>
</svg>
