<?xml version="1.0" encoding="utf-8"?>
<!-- Generator: Adobe Illustrator 24.0.0, SVG Export Plug-In . SVG Version: 6.00 Build 0)  -->
<svg version="1.1" id="Layer_1" xmlns="http://www.w3.org/2000/svg" xmlns:xlink="http://www.w3.org/1999/xlink" x="0px" y="0px"
	 viewBox="0 0 30 30" style="enable-background:new 0 0 30 30;" xml:space="preserve">
<style type="text/css">
	.st0{fill:#C7E3DE;}
	.st1{fill:#231F20;}
</style>
<rect x="1.6" y="9.8" class="st0" width="27.1" height="10.7"/>
<path class="st1" d="M11.8,22.9h-0.7V7.5h0.7c0.3,0,0.5-0.2,0.5-0.5s-0.2-0.5-0.5-0.5H9.4C9.1,6.5,8.9,6.7,8.9,7s0.2,0.5,0.5,0.5
	h0.7v15.4H9.4c-0.3,0-0.5,0.2-0.5,0.5s0.2,0.5,0.5,0.5h2.4c0.3,0,0.5-0.2,0.5-0.5S12.1,22.9,11.8,22.9z"/>
<g>
	<path class="st1" d="M8.3,21.1H1c-0.3,0-0.5-0.2-0.5-0.5V9.9c0-0.3,0.2-0.5,0.5-0.5h7.3c0.3,0,0.5,0.2,0.5,0.5s-0.2,0.5-0.5,0.5
		H1.5v9.7h6.8c0.3,0,0.5,0.2,0.5,0.5S8.5,21.1,8.3,21.1z"/>
</g>
<g>
	<path class="st1" d="M29,21.1H13.1c-0.3,0-0.5-0.2-0.5-0.5s0.2-0.5,0.5-0.5h15.4v-9.7H13.1c-0.3,0-0.5-0.2-0.5-0.5s0.2-0.5,0.5-0.5
		H29c0.3,0,0.5,0.2,0.5,0.5v10.7C29.5,20.9,29.3,21.1,29,21.1z"/>
</g>
<path class="st1" d="M7.5,12.4H3.9c-0.3,0-0.5,0.2-0.5,0.5s0.2,0.5,0.5,0.5h1.3v4.3c0,0.3,0.2,0.5,0.5,0.5s0.5-0.2,0.5-0.5v-4.3h1.3
	c0.3,0,0.5-0.2,0.5-0.5S7.7,12.4,7.5,12.4z"/>
</svg>
